<svg id="Layer_1" data-name="Layer 1" xmlns="http://www.w3.org/2000/svg" viewBox="0 0 512 512"><defs><style>.cls-1{fill:#91d8e4;}</style></defs><rect class="cls-1" width="512" height="512" rx="76.42"/><circle cx="265" cy="421.8" r="59.7"/><path class="cls-1" d="M265,363.61a58.2,58.2,0,1,1-58.2,58.19A58.2,58.2,0,0,1,265,363.61m0-3a61.2,61.2,0,1,0,61.2,61.19A61.27,61.27,0,0,0,265,360.61Z"/><path d="M256,315.43c-31.65,0-55.63-7.8-71.27-23.17s-23.59-38-23.59-67.3c0-16.94,3-30.88,8.76-41.42a78.69,78.69,0,0,1,22-25.62,124.8,124.8,0,0,1,28.47-15.74c9.95-3.93,19.39-7.88,28.06-11.75a74.36,74.36,0,0,0,21.12-13.68c5.38-5.13,8.11-12.22,8.11-21,0-7.34-2-13.61-5.87-18.63s-9.27-7.4-16.56-7.4c-6.81,0-12.19,2.25-16.45,6.89s-6.39,12.93-6.39,24.72v8.28H157.55V98.09c0-15,2.19-27.84,6.5-38.08a61,61,0,0,1,19-25.15c8.25-6.36,18.52-10.88,30.52-13.44s25.75-3.82,41.21-3.82c32.91,0,58.46,7,75.93,20.87s26.5,36.54,26.5,67.2c0,17.47-3.08,31.87-9.16,42.82a82.17,82.17,0,0,1-23,26.61,132.52,132.52,0,0,1-29.46,16.34c-10.3,4.1-20.08,8.18-29.08,12.15a81.6,81.6,0,0,0-22.13,13.9c-5.63,5.13-8.49,12.2-8.49,21a27.74,27.74,0,0,0,5.3,16.48c3.46,4.82,8.8,7.16,16.34,7.16,6.66,0,11.46-2.69,14.66-8.23,3.31-5.73,5-12.8,5-21a8.28,8.28,0,0,1,8.28-8.28h33a28.22,28.22,0,0,1,22.35,10.88,27.83,27.83,0,0,1,5.21,23.92c-3.55,14.46-9.81,26.11-18.63,34.6C312.73,308.24,288.69,315.43,256,315.43Z"/><path class="cls-1" d="M254.8,19.1q49.07,0,75,20.54t25.93,66q0,25.93-9,42.09a80.27,80.27,0,0,1-22.54,26.13,130.6,130.6,0,0,1-29.13,16.16q-15.55,6.18-29.12,12.17a82.64,82.64,0,0,0-22.54,14.16q-9,8.18-9,22.14A29,29,0,0,0,240,255.88q5.58,7.77,17.55,7.78,10.77,0,16-9t5.19-21.74a6.77,6.77,0,0,1,6.78-6.78h33c17.28,0,30.21,16.15,26.1,32.94q-5.24,21.38-18.21,33.88Q304.66,313.92,256,313.93q-47.08,0-70.22-22.74T162.64,225q0-25.14,8.58-40.69a76.42,76.42,0,0,1,21.54-25.14,123.42,123.42,0,0,1,28.13-15.56q15.15-6,28.12-11.77a75.74,75.74,0,0,0,21.55-14q8.56-8.19,8.57-22.14,0-11.58-6.18-19.55t-17.75-8q-10.77,0-17.56,7.38t-6.78,25.73v6.78H159.05v-10q0-22.35,6.38-37.5A59.34,59.34,0,0,1,184,36.05q12.17-9.37,29.92-13.16t40.9-3.79m0-3A201.85,201.85,0,0,0,213.28,20c-12.23,2.61-22.7,7.23-31.13,13.73a62.41,62.41,0,0,0-19.48,25.75c-4.39,10.42-6.62,23.43-6.62,38.66v13h77.81v-9.78c0-11.41,2-19.38,6-23.7s9-6.41,15.35-6.41C262,71.17,267,73.4,270.58,78c3.74,4.82,5.55,10.61,5.55,17.71,0,8.52-2.5,15.06-7.64,20a73,73,0,0,1-20.7,13.39c-8.66,3.86-18.08,7.8-28,11.72A127,127,0,0,0,191,156.72a79.85,79.85,0,0,0-22.39,26.1c-5.94,10.76-9,24.94-9,42.14,0,29.69,8.09,52.69,24,68.37s40.26,23.6,72.32,23.6c33.09,0,57.48-7.33,72.49-21.79,9-8.69,15.43-20.58,19-35.33a29.28,29.28,0,0,0-5.48-25.2,29.73,29.73,0,0,0-23.53-11.45h-33a9.78,9.78,0,0,0-9.78,9.78c0,7.93-1.61,14.74-4.79,20.24-2.91,5-7.28,7.48-13.36,7.48-7,0-12-2.14-15.12-6.53a25.88,25.88,0,0,1-5-15.61c0-8.5,2.62-15,8-19.92A79.93,79.93,0,0,1,267.18,205c9-4,18.74-8,29-12.12A133.85,133.85,0,0,0,326,176.31a83.57,83.57,0,0,0,23.39-27.09c6.21-11.17,9.35-25.83,9.35-43.55,0-31.14-9.1-54.15-27.06-68.38C313.92,23.23,288.05,16.1,254.8,16.1Z"/><path d="M257.39,481.21a59.7,59.7,0,1,1,59.7-59.7A59.76,59.76,0,0,1,257.39,481.21Z"/><path class="cls-1" d="M257.39,363.32a58.2,58.2,0,1,1-58.19,58.19,58.2,58.2,0,0,1,58.19-58.19m0-3a61.2,61.2,0,1,0,61.2,61.19,61.26,61.26,0,0,0-61.2-61.19Z"/><path d="M249,315.43c-31.65,0-55.63-7.8-71.27-23.17s-23.59-38-23.59-67.3c0-16.94,3-30.88,8.76-41.42a78.69,78.69,0,0,1,22-25.62,124.8,124.8,0,0,1,28.47-15.74c9.95-3.93,19.39-7.88,28.06-11.75a74.36,74.36,0,0,0,21.12-13.68c5.38-5.13,8.11-12.22,8.11-21,0-7.34-2-13.61-5.87-18.63s-9.27-7.4-16.56-7.4c-6.81,0-12.19,2.25-16.45,6.89s-6.39,12.93-6.39,24.72v8.28H150.55V98.09c0-15,2.19-27.84,6.5-38.08a61,61,0,0,1,19-25.15c8.25-6.36,18.52-10.88,30.52-13.44s25.75-3.82,41.21-3.82c32.91,0,58.46,7,75.93,20.87s26.5,36.54,26.5,67.2c0,17.47-3.08,31.87-9.16,42.82a82.07,82.07,0,0,1-23,26.61,132.52,132.52,0,0,1-29.46,16.34c-10.3,4.1-20.09,8.18-29.08,12.15a81.6,81.6,0,0,0-22.13,13.9c-5.63,5.13-8.49,12.2-8.49,21a27.74,27.74,0,0,0,5.3,16.48c3.46,4.82,8.8,7.16,16.34,7.16,6.66,0,11.46-2.69,14.66-8.23,3.31-5.73,5-12.79,5-21a8.28,8.28,0,0,1,8.28-8.28h33a28.22,28.22,0,0,1,22.35,10.88,27.83,27.83,0,0,1,5.21,23.92c-3.55,14.46-9.81,26.11-18.63,34.6C305.73,308.24,281.69,315.43,249,315.43Z"/><path class="cls-1" d="M247.8,19.1q49.07,0,75,20.54t25.93,66q0,25.93-9,42.09a80.27,80.27,0,0,1-22.54,26.13,130.6,130.6,0,0,1-29.13,16.16q-15.55,6.18-29.12,12.17a82.64,82.64,0,0,0-22.54,14.16q-9,8.18-9,22.14A29,29,0,0,0,233,255.88q5.58,7.77,17.55,7.78,10.77,0,16-9t5.19-21.74a6.77,6.77,0,0,1,6.78-6.78h33c17.28,0,30.21,16.15,26.1,32.94q-5.24,21.38-18.21,33.88Q297.66,313.92,249,313.93q-47.08,0-70.22-22.74T155.64,225q0-25.14,8.58-40.69a76.42,76.42,0,0,1,21.54-25.14,123.42,123.42,0,0,1,28.13-15.56q15.15-6,28.12-11.77a75.74,75.74,0,0,0,21.55-14q8.56-8.19,8.57-22.14,0-11.58-6.18-19.55t-17.75-8q-10.77,0-17.56,7.38t-6.78,25.73v6.78H152.05v-10q0-22.35,6.38-37.5A59.34,59.34,0,0,1,177,36.05q12.17-9.37,29.92-13.16t40.9-3.79m0-3A201.85,201.85,0,0,0,206.28,20c-12.23,2.61-22.7,7.23-31.13,13.73a62.41,62.41,0,0,0-19.48,25.75c-4.39,10.42-6.62,23.43-6.62,38.66v13h77.81v-9.78c0-11.41,2-19.38,6-23.7s9-6.41,15.35-6.41C255,71.17,260,73.4,263.58,78c3.74,4.82,5.55,10.61,5.55,17.71,0,8.52-2.5,15.06-7.64,20a73,73,0,0,1-20.7,13.39c-8.66,3.86-18.08,7.8-28,11.72A127,127,0,0,0,184,156.72a79.85,79.85,0,0,0-22.39,26.1c-5.94,10.76-9,24.94-9,42.14,0,29.69,8.09,52.69,24,68.37s40.26,23.6,72.32,23.6c33.09,0,57.48-7.33,72.49-21.79,9-8.69,15.43-20.58,19-35.33a29.28,29.28,0,0,0-5.48-25.2,29.73,29.73,0,0,0-23.53-11.45h-33a9.78,9.78,0,0,0-9.78,9.78c0,7.93-1.61,14.74-4.79,20.24-2.91,5-7.28,7.48-13.36,7.48-7,0-12-2.14-15.12-6.53a25.88,25.88,0,0,1-5-15.61c0-8.5,2.62-15,8-19.92A79.93,79.93,0,0,1,260.18,205c9-4,18.74-8,29-12.12A133.85,133.85,0,0,0,319,176.31a83.57,83.57,0,0,0,23.39-27.09c6.21-11.17,9.35-25.83,9.35-43.55,0-31.14-9.1-54.15-27.06-68.38C306.92,23.23,281.05,16.1,247.8,16.1Z"/></svg>