<svg id="Layer_1" data-name="Layer 1" xmlns="http://www.w3.org/2000/svg" viewBox="0 0 480 480"><defs><style>.cls-1{fill:#fcbf38;}.cls-2{fill:#1a2231;}.cls-3{fill:#fff;}</style></defs><circle class="cls-1" cx="240" cy="240" r="240"/><circle class="cls-2" cx="240" cy="240" r="230.57"/><circle class="cls-1" cx="240" cy="240" r="144.62"/><path class="cls-2" d="M395.45,238.63c-5.7-.06-11.41,0-17.09.29l-1.21,0a11,11,0,0,0-4.22-.12,34.59,34.59,0,0,1-3.94-.56l-.12-.06.95-.19c2.87-.6,5.18-2.39,7.67-3.8.26-.15.08-.59-.21-.49-2.25.77-4.58,1.34-6.88,1.93a14.7,14.7,0,0,1-3.61.51,10.28,10.28,0,0,0-2-.08l-.18-.1-.25-.14a16.26,16.26,0,0,0,4.18-1.47c2.27-1.19,4-3.86,5.36-6,.3-.47-.39-1-.76-.6-2.86,3.19-7.85,4.25-12.28,4.26-1.54-.54-3.05-1.21-4.46-1.74-3.18-1.2-6.37-2.4-9.6-3.46q-.75-.24-1.5-.45l.26-.08c1.22-.08,2.44-.07,3.64,0,5.34.15,10.75.71,16.1.48.47,0,.62-.77.11-.86-6-1.05-11.4-4-17.43-4.72a21.55,21.55,0,0,0-8.93.65l-.67.21a25,25,0,0,0-7.33,3.6c-3.28,2.26-6.12,5.09-9.15,7.66a38,38,0,0,1-4.45,3.24l-.62.38h0c-2.63.67-5.17,1.67-7.79,2.37-1.56.42-3.18.81-4.78,1.25l-1,.17a17,17,0,0,1-6-1.87,37.21,37.21,0,0,0-.11-5.06c-.3-3.21-1.09-6.54-1.27-9.83a20.94,20.94,0,0,1,5.41-.52c2.45,0,4.89.51,7.32.51a3.51,3.51,0,0,0,1.39-.32,30.73,30.73,0,0,0,5.35,1.15,12.4,12.4,0,0,0,3.6-.1c1.64-.3,3.23.33,4.81.66a1.07,1.07,0,0,0,.82-1.94c-1-.69-2.18-1.23-3.25-1.87-.92-.54-1.44-1.34-2.34-1.91a34,34,0,0,0-4.88-2.41,27.66,27.66,0,0,0,3.15-.84,20,20,0,0,0,2.47-1c.76-.13,1.51-.26,2.26-.43,4.73-1,9.22-2.53,14.08-3a62.06,62.06,0,0,0,7.45-.89,9.07,9.07,0,0,0,1.44-.49h.13a21.49,21.49,0,0,0,3.74.47,35.08,35.08,0,0,0,5-.29c.93,0,1.86.09,2.78.16,3.76.35,7.53.48,11.28.87,3,.32,7.72.32,10.09,2.46a.11.11,0,0,0,.19-.11,6.08,6.08,0,0,0-3.14-3.69c.82-.15,1.63-.32,2.41-.45,1.45-.26,2.89-.56,4.35-.8,1.9-.32,3.13-1.16,5.13-.22.1.05.22-.08.13-.15a13.54,13.54,0,0,0-7-3.3c-3.18-.37-6.41.66-9.57.8-1.52.06-3.09.37-4.61.31a11.53,11.53,0,0,1-1.85-.22c.62-.51,1.22-1,1.79-1.6,2.74-2.68,5.25-4.86,9.35-4.45.21,0,.26-.28.1-.38-2.88-1.72-5.71-1.1-8.87-.88-3.68.24-6.87,1.72-10.21,3.08a11.91,11.91,0,0,1-2.43.68c2-1.08,3.66-2.49,5.54-3.72,2.12-1.39,4.86-1.16,7.25-1.61a39.09,39.09,0,0,0,4.09-1c1.58.08,3.15.25,4.72.46,6,.83,11.77,2.86,17.91,2.22a.17.17,0,0,0,0-.34,26.27,26.27,0,0,1-10-2.41,48.72,48.72,0,0,0-7.33-3c.88-1,1.64-2.25,2.34-3.2.14-.18-.08-.39-.26-.35-2.11.49-4.09,1.15-6.23,1.53l-1.46.15a11.63,11.63,0,0,1-1.32,0q.39-.56.75-1.14a31.17,31.17,0,0,0,2.62-6.08c.75-2.22.55-4.92,1.61-7a.32.32,0,0,0-.5-.38c-1.56,1.46-3.25,2.56-4.4,4.43s-1.75,4-2.76,5.94a11,11,0,0,1-2.93,3.67c-4.94-.07-9.66,2.13-13.88,4.44A69.07,69.07,0,0,1,338.69,200a20.34,20.34,0,0,0,3.35-8.18,17.91,17.91,0,0,1,3.38-7.84c.68-1-.62-2.1-1.57-1.57a22.66,22.66,0,0,0-5.24,4.58c-.89.94-1.95,1.67-2.83,2.62s-1.8,2.26-2.67,3.4a63,63,0,0,1-4.11,5.54,22.54,22.54,0,0,1-5.95,4.45,27.76,27.76,0,0,1-5.22,2,16.17,16.17,0,0,0-4-.09,33.44,33.44,0,0,1-5.05.6,5.64,5.64,0,0,1-1.55-1.41,18.49,18.49,0,0,1,.32-3.52l.15-1.13A39.52,39.52,0,0,0,311,186.82l0-.56c.52.19.85.21.92,0,3.47,1.16,6.88,2.49,10.52,3,3.91.53,7.52.65,11.31-.6s5.42-5.28,7-8.63c.06-.13-.1-.29-.21-.16-3.5,4.16-9.17,3.6-14.17,2.26a10.35,10.35,0,0,0-2.55-1.29c-1.11-.42-2.21-.82-3.3-1.18a71.45,71.45,0,0,0,6.88-2.64c1.25-.55,2.5-1.08,3.75-1.58a68,68,0,0,1,10.29-.2c3.87.22,7.64,1,11.48,1.43a17.34,17.34,0,0,0,5.19-.75c2-.44,4-.56,6-1.06a.56.56,0,0,0,0-1.07c-.76-.2-1.52-.4-2.27-.62-1-.31-2.25-.09-3.26-.54l-.74-.33c3.64-1.63,6.8-4,10.54-5.61.19-.08.2-.41-.05-.39A71.78,71.78,0,0,0,355.43,168a47.27,47.27,0,0,1-6.11,1.36l-.29,0a21,21,0,0,0,5.77-3.48l.43-.4a12.86,12.86,0,0,0,5.77-3.42c1.65-1.77,2.71-3.65,5.17-4.28,2.24-.58,5.45-1.18,7.59-.16a.28.28,0,0,0,.33-.43,16.76,16.76,0,0,0-6.63-4.34c2.77-1.45,6.27-1.45,9.35-1.38a.27.27,0,0,0,.07-.53,35.3,35.3,0,0,0-6.39-1.5,11.14,11.14,0,0,0-6.36,1.71,9.26,9.26,0,0,0-1.55,1.22,8.53,8.53,0,0,0-2.38.75c-2.73,1.32-4.08,4.22-6.28,6.12l-.15.12c-.15.06-.3.13-.45.18a8.79,8.79,0,0,0,.66-1.67c.7-2.5,2-4.8,2.63-7.36a14.7,14.7,0,0,0,.15-7.59.34.34,0,0,0-.65,0c-1,2.41-1.64,4.93-2.51,7.4a29,29,0,0,1-1.87,4,25.07,25.07,0,0,1-2.75,3.27,20.8,20.8,0,0,1-5.51,4.77c-1.91.57-3.82,1.11-5.74,1.64h0a30.17,30.17,0,0,0,3.1-9.33,30.63,30.63,0,0,0,1.77-2.52c1.66-2.58,3.95-5.11,4.9-8.05a17.64,17.64,0,0,0,1-8.33c-.05-.36-.57-.37-.74-.1-1.55,2.58-2.7,5.29-4.59,7.68-.6.74-1.17,1.5-1.75,2.27.09-1,.13-2,.19-2.93a74.7,74.7,0,0,0,.25-7.77,18.59,18.59,0,0,0-.87-4.49c-.45-1.56-1.4-2.9-1.72-4.5-.1-.52-.88-.37-.89.12,0,1.42-.64,2.67-.82,4s-.38,2.67-.49,4c-.21,2.65-.58,5.27-.87,7.91a40.15,40.15,0,0,0-.27,4.65,37,37,0,0,1-1,5.09c-.08.28-.17.54-.26.81a9,9,0,0,0-.55,1.12c-.61,1.18-1.27,2.35-1.94,3.5a45.63,45.63,0,0,1-4.77,7.07,25.71,25.71,0,0,1-5.69,4.8c-1.75.49-3.49,1.07-5.23,1.41-1.44.28-2.9.49-4.35.68a4.05,4.05,0,0,1-2.26-3.45c0-.15,0-.3,0-.46.13-1.86,1.18-3.29,1.6-5.06s1.08-3.55,1.44-5.36c.62-.75,1.21-1.52,1.81-2.3a36.46,36.46,0,0,0,5.53-10.17c2-4.31,3.23-9.11,4.74-13.19a32.89,32.89,0,0,1,7.77-11.81c3.45-3.55,9.33-5.22,14.05-6.09a.32.32,0,0,0,0-.62A24.41,24.41,0,0,0,325.27,120c.31-1.84.63-3.67,1-5.49.74-3.54,1.93-8.31,5.37-10.12.34-.18.1-.66-.25-.59a9.27,9.27,0,0,0-6,4.19v-.06c-.63-3.27-1.89-6.36-1.27-9.76.06-.34-.4-.59-.58-.25-1.43,2.66-1.47,5.45-1.36,8.4a23.93,23.93,0,0,0,.93,7.11c-.74,2.75-1.14,5.65-1.61,8.11-.34,1.8-.71,3.61-1.13,5.4a43,43,0,0,0-2.71,5.78c-.11-1.42-.29-2.86-.51-4.27.13-1.77.24-3.54.35-5.31.18-2.58.56-5,1-7.59a23.26,23.26,0,0,0,.48-6.75c-.05-.37-.64-.34-.71,0-.67,3.13-2.14,5.94-3.18,8.92-1-4.92-2.31-9.75-2.07-14.86a.22.22,0,0,0-.43,0,42,42,0,0,0-1.2,8.65c-.08,1.57-.31,3.15-.41,4.72a34.69,34.69,0,0,0,.63,5.54c.35,3.14.67,6.27.74,9.43a60,60,0,0,0,.29,6.55,49.19,49.19,0,0,1-6.52,16.72,37,37,0,0,1-5.37,6.82,28.23,28.23,0,0,1-2.8,1.66,35.84,35.84,0,0,0-8.09-3.18c.36-.13.71-.27,1.06-.43,3.78-1.65,5.6-5.93,8.76-8.39.24-.19-.07-.58-.33-.43-1.65,1-3.11,2.29-4.65,3.46a9.34,9.34,0,0,1-6.25,1.61,33.41,33.41,0,0,0-5.74.28,53.36,53.36,0,0,0,7.11-8.08,18.14,18.14,0,0,0,1.76-16.23c-.07-.22-.46-.2-.43.06.4,3.3.24,6.58-1.6,9.42a20.41,20.41,0,0,1-6.27,5.64c-4.22,2.73-8.58,5.09-12,8.76-.59-.06-1.18-.12-1.78-.16-2.65-.18-5.28-.24-7.92-.22a5.51,5.51,0,0,1-2.66-1.43A11.84,11.84,0,0,1,257,150c.15-.48.3-1,.42-1.44a30.05,30.05,0,0,1,1.46-4.32,26.26,26.26,0,0,1,5.62-6.68c4.13-3.63,9.49-5.83,14.05-9a50.27,50.27,0,0,0,7.15-5.85c.53-.2,1.06-.41,1.62-.61,2.89-1,5.85-1.84,8.67-3,5.37-2.31,9.69-5.19,13-10.11.28-.43-.39-.95-.71-.55-3.57,4.41-9.64,6-15,7.23-1.08.25-2.16.54-3.25.85l.06-.13a24.86,24.86,0,0,0,1.38-4.39,28.06,28.06,0,0,1,2.41-6.06c1.69-3.35,3.71-6.53,5.11-10,.09-.23-.27-.37-.39-.17a68.5,68.5,0,0,1-7,8.93c0-3.9-.35-7.68,1.16-11.45.12-.29-.3-.42-.46-.2a25.45,25.45,0,0,0-4,11.26,43.69,43.69,0,0,0-.18,4.74c-.14.2-.29.4-.43.61-2.37,3.49-4.62,6.59-8.18,9a60.77,60.77,0,0,1-7.26,4,28.85,28.85,0,0,0,1.33-3.44c1.59-5.16.82-11.22-.59-16.33-1.22-4.4-4-10.19-8.68-11.73a.36.36,0,0,0-.35.6c3.75,4,5.08,8.38,4.8,13.86a29.37,29.37,0,0,1-3.54,12.07,16.67,16.67,0,0,0-1.32-8.34c-1.12-2.38-2.29-4.73-3.46-7.08s-2.65-4.35-2.74-7.23a.15.15,0,0,0-.27-.07c-1.47,2.35-1.14,5.52-.35,8.46-2.49-2.34-5.51-4.38-6.2-7.88a.41.41,0,0,0-.79,0c-.87,3.49.47,7.48,2.52,10.33,1.27,1.76,2.76,3.36,4,5.17a21.08,21.08,0,0,0,2.58,3.17,27.54,27.54,0,0,1-1.54,4.93c-1.74,4.5-3.73,9-5.64,13.5-1.42,3.41-3.92,7.56-2.89,11.33a24,24,0,0,0-.93,2.87,46.9,46.9,0,0,0-1,6.39,11.16,11.16,0,0,1-4,3.51l-4.35.7a6.59,6.59,0,0,1-2.61-1.08,38,38,0,0,1-2.77-6c-.93-2.25-1.81-4.49-2.67-6.75.72-3.51-1.44-7.27-2.78-10.44-2-4.73-3.72-9.42-5.84-14a19.41,19.41,0,0,1-1.61-4.88,22.55,22.55,0,0,0,2.34-2.8c1.28-1.76,2.68-3.41,4-5.17,2.19-3,3.77-7,2.84-10.76a.41.41,0,0,0-.79,0c-.7,3.55-3.74,5.47-6.19,7.82.79-2.93,1.12-6-.36-8.4a.15.15,0,0,0-.27.07c-.08,2.56-1.16,4.58-2.44,6.72-1.37,2.29-2.28,4.81-3.54,7.16a16,16,0,0,0-1.58,8.76,30.49,30.49,0,0,1-3.5-12.06A17.36,17.36,0,0,1,216,91.64a.36.36,0,0,0-.35-.6c-4.6,1.5-7.17,7-8.52,11.22-1.62,5.07-2.27,11.24-.87,16.42a27.5,27.5,0,0,0,1.31,3.7c-4.69-2.49-9-4.65-12.56-8.78a39.4,39.4,0,0,1-3-4.21c0-1.74-.19-3.47-.32-5.21a24.31,24.31,0,0,0-4-11.26c-.16-.22-.58-.09-.46.2,1.5,3.73,1.15,7.49,1.17,11.36a67.9,67.9,0,0,1-7-8.84c-.12-.2-.48-.06-.39.17,2.12,5.28,5.7,9.89,7.33,15.38.54,1.8,1,3.53,1.66,5.23-.95-.23-1.88-.46-2.73-.7-5.52-1.59-11.69-2.67-15.51-7.39-.32-.4-1,.12-.71.55,3.29,4.92,7.61,7.8,13,10.11,2.64,1.13,5.42,1.9,8.13,2.85.72.25,1.42.52,2.1.79l.33.33c6.09,6.09,14.53,9.12,20.93,14.57a23.42,23.42,0,0,1,5.76,7.07,32.46,32.46,0,0,1,1.13,3.23q.16.58.36,1.17a6.72,6.72,0,0,1-.94,1.35,10.16,10.16,0,0,1-4.11,3.09,16,16,0,0,1-6.94,1.24c-.6,0-1.19,0-1.79,0l-.69.14c-3.23-3.24-7.17-5.53-11.07-7.95a22.72,22.72,0,0,1-6.43-5.52c-2.12-2.85-2.28-6.4-1.87-9.81,0-.26-.36-.28-.43-.06A18.41,18.41,0,0,0,190,147.3a42,42,0,0,0,7.21,8.51c-1.61-.19-3.23-.27-4.83-.3-2.32,0-4.54.05-6.56-1.31-1.76-1.18-3.29-2.65-5.09-3.77-.26-.15-.57.24-.33.43,3.06,2.39,4.81,6,8.14,8.06a17.17,17.17,0,0,0,4.18,1.79,60.62,60.62,0,0,0-8.72,2.22l-.13,0c-1.47-.42-2.91-.94-4.33-1.49a40.13,40.13,0,0,1-5.58-7,48.16,48.16,0,0,1-6.51-16.79,49.61,49.61,0,0,0,.28-5.69,83.06,83.06,0,0,1,.74-10.22,50,50,0,0,0-1-18.91.22.22,0,0,0-.43,0c.24,5.06-1,9.87-2,14.75-.14-.46-.29-.91-.45-1.37-.9-2.54-2.21-4.77-2.78-7.44-.07-.34-.66-.37-.71,0-.61,4.43,1.11,9.16,1.4,13.58.13,2,.25,4,.4,5.94-.23,1.45-.39,2.92-.49,4.38a41.52,41.52,0,0,0-2.72-5.8q-.62-2.67-1.12-5.36c-.47-2.46-.87-5.36-1.61-8.11a23.33,23.33,0,0,0,.93-7.11c.09-3,.08-5.72-1.36-8.4-.18-.34-.64-.09-.58.25.55,3-.23,6.21-1.09,9.11-.06.23-.13.46-.2.7a9.29,9.29,0,0,0-6-4.18c-.35-.07-.59.41-.25.59,3.48,1.83,4.58,6.57,5.37,10.12.41,1.82.72,3.65,1,5.48a24.49,24.49,0,0,0-21.51-7.24.32.32,0,0,0,0,.62,30.92,30.92,0,0,1,13.6,5.66c3.71,2.93,6.29,7.32,8,11.65s2.95,9.29,5,13.78a37.61,37.61,0,0,0,5.07,9.57c.73,1,1.49,2,2.29,3,.37,1.76,1,3.5,1.41,5.22s1.4,3.2,1.6,5.06c0,.2,0,.39,0,.58a4.14,4.14,0,0,1-2.26,3.3c-1.27-.16-2.53-.33-3.79-.55a58.24,58.24,0,0,1-5.86-1.54,30.45,30.45,0,0,1-5.64-4.77,42.13,42.13,0,0,1-4.41-6.49,35,35,0,0,1-3-5.63,27.46,27.46,0,0,1-1.13-5.28l-.09-.79c0-1.34-.11-2.68-.2-4-.16-2.38-.68-4.72-.8-7.11-.06-1.25-.23-2.5-.41-3.73-.25-1.71-.93-3.42-1-5.14,0-.49-.79-.64-.89-.12-.27,1.37-1.11,2.43-1.5,3.74a26,26,0,0,0-1,4.45,47.22,47.22,0,0,0,.16,8.57c.07,1.05.14,2.08.26,3.1l-1.47-2c-1.94-2.61-3.28-5.37-4.94-8.13-.17-.27-.69-.26-.74.1a15.54,15.54,0,0,0,.7,7.62c1.12,3,3,5.44,4.72,8.08.71,1.07,1.4,2.14,2.16,3.16a25.85,25.85,0,0,0,3.16,9.35h0c-2-.61-4.11-1.29-6.19-1.91a22.12,22.12,0,0,1-5.08-4.49,24.35,24.35,0,0,1-2.45-2.75,28.31,28.31,0,0,1-1.95-4c-1-2.62-1.64-5.37-2.73-8a.34.34,0,0,0-.65,0,14.54,14.54,0,0,0,0,7c.59,2.8,2,5.24,2.77,7.95a8.11,8.11,0,0,0,.71,1.76l-.35-.18c-2.18-1.87-3.7-4.3-6.06-6a6.5,6.5,0,0,0-3-1.11,15.13,15.13,0,0,0-1.43-1.17c-4-2.85-8.48-1.29-12.75-.21a.27.27,0,0,0,.07.53c3.16-.07,6.52-.05,9.3,1.41l-.29.1a16,16,0,0,0-6.29,4.21.28.28,0,0,0,.33.43c2.1-1,4.84-.34,7.05,0,2.49.43,3.77,2.06,5.31,3.93a12.69,12.69,0,0,0,6.15,3.88,19.11,19.11,0,0,0,6.14,3.88,45.69,45.69,0,0,1-6.32-1.39,76.64,76.64,0,0,0-12.83-1.68c-.25,0-.24.31,0,.39a37.32,37.32,0,0,1,6.67,3.68,19,19,0,0,0,3.83,2l-.27.11c-1.8.7-4,.86-6,1.34a.56.56,0,0,0,0,1.07,23.56,23.56,0,0,0,4.91.83c2.07.07,4.13.9,6.24,1a29.17,29.17,0,0,0,5.48-.77q3-.45,6-.66a66.69,66.69,0,0,1,10.48.23c.72.3,1.44.6,2.16.92a79.42,79.42,0,0,0,8.21,3.2l-1,.37a29.76,29.76,0,0,0-3.93,1.56c-.28.17-.55.34-.82.53-5,1.36-10.66,2.08-14.24-2.18-.11-.13-.27,0-.21.16,1.56,3.33,2.87,6.55,6.29,8.34s7.43,1.49,11,1a41.1,41.1,0,0,0,6.58-1.51,29.06,29.06,0,0,0,.69,5.28c1,4.4,3.58,7.92,6.53,11.23l1.68,1.88-1-.05c-2-.09-3.9-.25-5.84-.42a41,41,0,0,1-7.6-2.5,24.15,24.15,0,0,1-10.32-9.7,26.32,26.32,0,0,0-5.39-6.14c-1.92-1.67-3.4-3.78-5.69-5-1-.53-2.25.58-1.56,1.57,1.58,2.31,2.88,4.36,3.28,7.19a21,21,0,0,0,3.15,8.39c.09.15.2.3.29.46a82.21,82.21,0,0,1-10.83-4.55c-4.47-2.33-8.82-4.26-13.95-4.44a11.45,11.45,0,0,1-2.64-3.27c-1.09-1.88-1.84-3.95-2.78-5.91-1-2.14-2.94-3.32-4.6-4.86a.32.32,0,0,0-.5.38c1,2,.74,4.42,1.46,6.52A40.62,40.62,0,0,0,110,190a15,15,0,0,0,.92,1.5,12.76,12.76,0,0,1-1.75,0l-1-.1c-2.13-.3-4.08-1.05-6.18-1.54-.18,0-.4.17-.26.35.73,1,1.49,2.12,2.35,3.11a34.58,34.58,0,0,0-6.73,2.79,26,26,0,0,1-10.61,2.72.17.17,0,0,0,0,.34c5.91.61,11.4-1.27,17.17-2.11,1.77-.26,3.55-.45,5.32-.54,1.43.42,2.93.7,4.23.95,2.46.46,5,.3,7.25,1.61,1.93,1.13,3.62,2.59,5.56,3.71a13.11,13.11,0,0,1-1.92-.47c-3.46-1.16-6.47-2.85-10.19-3.23-3.28-.33-6.45-1-9.42.83-.16.1-.11.4.1.38,3.88-.38,6.28,1.52,8.92,4,.76.72,1.53,1.39,2.31,2l-.41.09c-1.8.42-3.65-.11-5.45-.18-3.19-.12-6.43-1-9.61-.86a13.18,13.18,0,0,0-7.66,3.36c-.09.07,0,.2.13.15a6.22,6.22,0,0,1,5.13.22,22.55,22.55,0,0,0,4.35.8c.77.12,1.57.28,2.38.43a6.21,6.21,0,0,0-3.11,3.71.11.11,0,0,0,.19.11c2.3-2.07,6.67-2,9.57-2.4,2.55-.31,5.12-.45,7.68-.61.89,0,1.8-.1,2.67-.18l1.55-.14h0c.78-.06,1.57-.11,2.35-.14a38.21,38.21,0,0,0,4.48.28,19.73,19.73,0,0,0,3.93-.47h1l.43.18c2.29.92,4.93.91,7.37,1.11,5.15.44,9.9,1.95,14.9,3.09.77.18,1.54.32,2.31.45.57.27,1.14.52,1.74.75a25.53,25.53,0,0,0,3.69,1.09,41.08,41.08,0,0,0-4.11,2c-.93.53-1.48,1.39-2.31,2-1.24.85-2.66,1.39-3.91,2.22a1.07,1.07,0,0,0,.82,1.94c1.25-.26,2.45-.57,3.72-.75s2.66.34,4,.26a38.45,38.45,0,0,0,7.63-1.64,44.47,44.47,0,0,1,4.65-1c.84.21,1.67.44,2.46.7a25.28,25.28,0,0,0,1.38,5.27c.06.15.13.29.2.43.07,3-.05,5.93,0,8.86-.53,1.26-1.38,2.6-2.42,2.95a3.75,3.75,0,0,1-1.18.2c-.76-.17-1.52-.32-2.29-.43l-.16,0a14.21,14.21,0,0,0-2.17-.58l-.31-.08c-2.64-.7-5.21-1.56-7.8-2.4l-.37-.11c-1.68-1.15-3.56-2.12-5-3.31-3.24-2.64-6.19-5.59-9.6-8a23.59,23.59,0,0,0-7.44-3.62l-.56-.19a20,20,0,0,0-8.93-.65c-6,.73-11.46,3.67-17.43,4.72-.51.09-.36.84.11.86,5.12.22,10.38-.16,15.49-.45a32.64,32.64,0,0,1,4.31,0l.19.06-.89.26c-3.25,1-6.38,2.33-9.6,3.43-1.69.58-3.45,1.39-5.24,2-4.41,0-9.36-1.25-12.1-4.31-.37-.41-1.06.13-.76.6a19.37,19.37,0,0,0,4.9,5.64,11.9,11.9,0,0,0,4.62,1.8l-.23.13-.15.09a2.49,2.49,0,0,0-1.27,0,10.08,10.08,0,0,1-4.32-.44c-2.3-.53-4.64-1.17-6.88-1.93-.29-.1-.47.34-.21.49,2.56,1.45,4.8,3,7.67,3.8a8.25,8.25,0,0,0,.82.2l-.14.07a37.42,37.42,0,0,1-4.12.54,9,9,0,0,0-1.95-.24,7.87,7.87,0,0,0-2.16.35h-.21c-6-.1-11.9-.37-17.87-.31-.3,0-.38.48-.07.53,4.23.67,8.29,2,12.45,2.91A9.73,9.73,0,0,0,95,244.69c-1.25,2.49-1.58,5.77-4.56,6.78a.27.27,0,0,0,.14.52,14.26,14.26,0,0,0,5.69-3.06,26.33,26.33,0,0,1,6.38-3.78c2.53-1,5.34-1.45,7.83-2.49A33.9,33.9,0,0,0,117.2,241c4.45-1.63,8.6-4,12.91-5.95.86-.39,1.74-.75,2.63-1.08l3.87-1.24.28-.1a28.08,28.08,0,0,0,4.84-1.13c.61,0,1.21,0,1.82.05a17.58,17.58,0,0,1,2.29.35c.56.43,1.11.87,1.65,1.35l.54.48a40.62,40.62,0,0,0,3.85,4.67c-3.15.66-6,1.55-7.16,1.82a50.28,50.28,0,0,1-10.62,1.58c-3.22.07-7.68-.41-10.54,1.36a.38.38,0,0,0,0,.64,17,17,0,0,0,4.55,1.57,32.87,32.87,0,0,0,5.19,1,56,56,0,0,0,5.89.51c-1.77,2.26-3.11,4.62-5.76,6.15a.29.29,0,0,0,.14.53,18.74,18.74,0,0,0,6.84-2.12c2.68-1.33,4.79-3.36,7.32-4.9.48-.28,1-.54,1.45-.8,1.07-.22,2.12-.45,3.18-.69a32.61,32.61,0,0,1,7,.91l.1,0a47,47,0,0,0,4.38,3.13,50,50,0,0,0,11.81,5.37c1,.32,2.08.59,3.14.84.13.4.3.92.29.85a2.84,2.84,0,0,1-.09,1.19c-.77,1.6-2.56,2.26-4.29,3.13a58.56,58.56,0,0,1-7.06,1.12c-1.21.11-2.4.24-3.6.39-2.43,0-4.86,0-7.25-.11-5.37-.19-10.74-1.06-16.11-1.06-1.63,0-3.28,0-4.9-.16l-.39-.16a43.36,43.36,0,0,1-10.12-6.64c-3.42-2.84-7.86-4.82-8.62-9.62-.07-.42-.74-.31-.73.1.08,4.2.65,8.82,3.32,12.2a31.59,31.59,0,0,0,6.72,6.09,49.8,49.8,0,0,1-5.9-.41,12.42,12.42,0,0,1-6.33-3.36,52.15,52.15,0,0,1-5.8-5.61c-.58-.7-1.63.2-1.22.94.68,1.23.88,2.66,1.52,3.91s1.16,2.18,1.83,3.22c-2-.17-4.09-.43-6.13-.5a40.82,40.82,0,0,0-7.49.56c-.52.08-.35.83.11.86a40.39,40.39,0,0,1,7,1.56,50.39,50.39,0,0,0,6.48,1.1c1.24.14,2.48.25,3.72.4.45.46.91.91,1.38,1.37a12.3,12.3,0,0,0,4.42,2.57,16.51,16.51,0,0,0-1.45,1,13,13,0,0,0-4,5.64c-.87,2.28-.36,4.86-1.37,7.1-.06.15.11.31.24.18,1.34-1.31,2.92-2.36,4.18-3.76a31.14,31.14,0,0,1,4-4.23c3.84-2.94,9.52-3.57,14.14-4.38,2.14-.38,4.22-1,6.33-1.52,2.73.17,5.42.21,8.16.52,2.9.34,5.8.65,8.69,1l1.38.17-.72.25a45,45,0,0,0-7.22,4.06l-.08,0c-3.55.76-7.37,2.23-9.81,5l-.49.6-.22.17c-1.93,1.59-3.42,3.6-5.21,5.33-1.44,1.38-2.84,1.79-5.25,1.31l-.38-.07a31.52,31.52,0,0,0-6.29-1.31,18,18,0,0,0-6.41,1c-2.29.74-4.7,1.63-6.84.06-.36-.26-.72.22-.56.55,1.39,2.74,3.91,3.7,6.66,4.07-1.21,1-2.35,2-3.63,2.9a53.33,53.33,0,0,1-6.25,3.72.24.24,0,0,0,.18.43,42,42,0,0,0,5.08-1.91,60.66,60.66,0,0,1,6.49-2.36c2-.65,4-1.18,6.08-1.69a15.53,15.53,0,0,0,5.25,2.28,12.05,12.05,0,0,0,2.06.24,32.25,32.25,0,0,0-1,4.4,26.56,26.56,0,0,0-.35,5.46c-.27.59-.54,1.18-.84,1.77a28.43,28.43,0,0,1-4.46,6.34,10.84,10.84,0,0,1-4.33,2.79.06.06,0,0,0,0,.06c-.07,1.52,2.86.57,3.46.33a14.27,14.27,0,0,0,6.14-4.86c.23-.32.46-.66.68-1a88.48,88.48,0,0,0,3.22,11.43.18.18,0,0,0,.34-.05c.3-7.18,2-14.39,3.87-21.32a22.66,22.66,0,0,1,4.2-8.74c2.67-3.15,6.62-5.08,10.23-6.95,2.44-1.27,5-2.42,7.48-3.52a109.23,109.23,0,0,0,10.87-4.32c1-.42,1.93-.88,2.88-1.36q2.32-1,4.62-2c2.54.17,5.67-2.32,7.92-3a6,6,0,0,1,7.81,4.06,5.71,5.71,0,0,1-1.24,4.91c-3.35,2.86-8.14,4-12,5.78-4.89,2.28-10,3.11-15.29,3.58a.15.15,0,0,0,0,.3,41.31,41.31,0,0,1,8,.42l2.23.42a22.58,22.58,0,0,0-2.47,5.3c-1.85.18-3.66.22-5.58.26a14.82,14.82,0,0,0-6.66,1.46c-.21.11-.06.42.16.37,3.3-.71,7.16,1,10.68,1.1a6.09,6.09,0,0,1-4.57,3.53c-.1,0-.07.17,0,.17,2,.05,3.53-.91,5.16-1.88a44.67,44.67,0,0,0,5.85-4.21,39.66,39.66,0,0,1,4.95-4,2,2,0,0,1-.07.23,39.12,39.12,0,0,1-5,9.63c-2,2.93-4.65,5.38-6.56,8.38-.18.28.22.57.45.35,2.33-2.21,5.2-3.66,7.66-5.7s4.45-5.41,6.17-8.24c1.41-2.3,3-4.68,5.28-6.2a17.31,17.31,0,0,1,4.09-1.57,99.46,99.46,0,0,1-6.84,16.57,51.48,51.48,0,0,1-4.82,7.71,23.79,23.79,0,0,1-8.15,3c-2.38.52-4.77,1.06-7.16,1.53-.32.06-.63.11-1,.15a61.89,61.89,0,0,1-6.88-.87c-2.37-.41-4.69-1-7-1.44-1.16-1.07-2.24-2.26-3.33-3.38-1.55-1.61-4.15-6.12-6.79-5.92a.31.31,0,0,0-.27.46c.68,1.26,2,2.34,2.82,3.59a41.56,41.56,0,0,1,2.32,4.24c-.26,0-.52-.06-.78-.07a54.61,54.61,0,0,1-5.7-.41c-.13,0-.25.18-.1.25a26.27,26.27,0,0,1,4.79,3.05c-3.92,1.26-7.08,4.26-10,7.07a.19.19,0,0,0,.23.29,34.84,34.84,0,0,1,10.65-5,9.83,9.83,0,0,1,2.32-.19,46.39,46.39,0,0,0,4.64,2.29l.14.09a8.62,8.62,0,0,0,2.82,1l.08,0c-1.53.75-3.06,1.53-4.51,2.42a27.38,27.38,0,0,0-4.94,2.78c-.73.3-1.43.7-2.19,1-1.8.71-3.64,1.29-5.44,2a35.38,35.38,0,0,0-5.31,2.71,28.6,28.6,0,0,1-6.43,2.63.27.27,0,0,0,.14.52c4.24-.88,8.48-1.07,12.73-1.77l1.37-.21c-.21.48-.4,1-.59,1.44-.64,1.63-1.05,3.33-1.57,5-.58,1.85-.84,4.06-2.07,5.58a.35.35,0,0,0,.5.5,33.06,33.06,0,0,0,3.56-2.75,22,22,0,0,0,2.81-4.13c1.54-2.64,2.25-5.43,4.38-7.61l.33-.22c.92-.38,1.9-.66,2.79-1,3.59-1.44,7.25-2.73,10.84-4.19,3.36-1.38,7-1.57,10.42-2.6.29-.08.57-.18.85-.28a35.36,35.36,0,0,0,14.5-3.47c.14,2.61.42,5.23.71,7.83a46.73,46.73,0,0,1-.43,5.67,70.84,70.84,0,0,1-1.64,7.06c-1.8,2.11-4.22,4.2-4.92,6.81s-1.72,5-2.33,7.61c-.55,2.34-1,5.94-3.12,7.41-.19.13-.08.5.17.4,5.19-2.09,5.57-8.73,8.34-12.77a6.34,6.34,0,0,1,.62-.77,23.28,23.28,0,0,0,2.61,8.34c.12.22.49.07.41-.16a9.75,9.75,0,0,1-.19-7.07c.65-1.94,1.12-3.92,1.85-5.84l.15-.37c.54-.64,1.06-1.29,1.57-2l.06-.08c.19.48.39,1,.6,1.45a18.27,18.27,0,0,0,2.22,3.75c.51,2.37,1,4.75,1.31,7.17.46,3.73,1.06,9.32,5.55,10.18.4.08.84-.45.45-.76-3-2.33-2.48-7.1-2.58-10.68a40.82,40.82,0,0,0,9.06,7,.22.22,0,0,0,.22-.38,22.46,22.46,0,0,1-6.36-6.76l-.08-.15-.14-.22a17,17,0,0,1-1.07-2.24c-.22-.55-.43-1.11-.64-1.67s-.09-1.11-.17-1.56-.17-.88-.26-1.32a27.49,27.49,0,0,0,2.59,1.36,116.92,116.92,0,0,1,12.39,6.14c.4.25.71-.34.36-.61-3.12-2.34-6.17-4.81-9.34-7.08-1.49-1.07-3.18-1.82-4.69-2.86a10.18,10.18,0,0,1-2.75-3,61.61,61.61,0,0,1-1-9.49c-.09-1.7-.25-3.4-.42-5.1q0-.61.06-1.23c.13-4.05.12-8,.46-12a5.38,5.38,0,0,0,.61-2.26c.37-1.06.76-2.12,1.16-3.16a24.91,24.91,0,0,0,3.53,8.16c.18,1.52.33,3.05.52,4.57a31.77,31.77,0,0,0,6,15.14.23.23,0,0,0,.4-.24,21.65,21.65,0,0,1-1.67-5.23l.14.15c1.39,1.4,2.94,2.61,4.43,3.9s3.54,1.91,4.62,3.54c.07.11.27,0,.22-.09a23.26,23.26,0,0,0-1.61-4,22.68,22.68,0,0,0-3.56-3.64c-1.28-1.19-2.5-2.48-3.8-3.64a8.08,8.08,0,0,1-1-1.09c-.1-1.47-.16-2.95-.24-4.43a47.51,47.51,0,0,0,10.18,5.81.27.27,0,0,0,.27-.47,17.68,17.68,0,0,1-5.9-6.75,19.53,19.53,0,0,0,3.74,2.54,41.54,41.54,0,0,0,10.34,3.64c.09,1.17.2,2.35.3,3.51.05.47.1.94.14,1.4.07,2.12.17,4.23.32,6.34-.22,1.33-.47,2.65-.75,4a42.79,42.79,0,0,1-11.4,20.52c-1.38,1.42-2.84,2.68-4.29,4a45.55,45.55,0,0,0-6.42,3.35,36.93,36.93,0,0,1-4.61,1.25c-2.33.49-4.38,1.2-6.78,1.05-4.62-.29-8.83-1-13.46-.32-.3,0-.19.47.07.5,4.65.44,9,2.66,13.68,3.32l1.38.21a50.53,50.53,0,0,0-6.11,4.86,39.89,39.89,0,0,1-9.82,6.84c-3.53,1.74-7.88,2.34-11.73,2.91-.19,0-.14.33.05.33,3.54-.1,7-.16,10.55-.44-.35.42-.68.82-1,1.18-3.15,3.48-6.39,8.1-11.46,8.49a.15.15,0,1,0,0,.3c4.4.1,8.12-2.24,11.35-5,1.8-1.54,3.48-3.23,5.22-4.84.34-.32.68-.65,1-1a21.73,21.73,0,0,0,4.41-2,21,21,0,0,0-1.22,5.16c-.42,4,.21,8.06-.21,12.11a.19.19,0,0,0,.32.13c2-2.53,2.83-6,4-8.92,1.32-3.3,3.86-6.14,5.84-9.08a31.84,31.84,0,0,1,2.7-3.41c1.55-1,3.14-2,4.69-3,2.79-1.8,5.67-3.46,8.48-5.23a36.74,36.74,0,0,0,4-2.36,41.25,41.25,0,0,0,10.89-4.85,20.07,20.07,0,0,0,2.81-2.31,7.44,7.44,0,0,1,.85.42A120,120,0,0,1,228,379.15c-.67,1.86-1.37,3.74-2.12,5.61-1.69,1.61-3.25,3.4-4.76,4.7-2,1.74-4.61,2.41-7.12,3.1a87.77,87.77,0,0,0-10.24,3,.26.26,0,0,0,.06.5c3.52.25,7.11,0,10.65-.05a30.7,30.7,0,0,0,5.95-.43,9,9,0,0,1-7,3.61.44.44,0,0,0,0,.88,18.72,18.72,0,0,0,12.6-4.09c.66-.53,1.28-1.07,1.87-1.63-.39.79-.78,1.59-1.16,2.38-1.5,2-3,4.08-4.52,6-1.18,1.51-2.37,3-3.55,4.54a14.4,14.4,0,0,0-2.23,3.15,14.64,14.64,0,0,0-.55,7.17.27.27,0,0,0,.54,0,6.91,6.91,0,0,1,1.26-4.28c.62-.8,1.62-1.31,2.3-2.06,1.44-1.59,2.86-3.18,4.24-4.8.2,2.26.78,4.54.92,6.77a.29.29,0,0,0,.57.08c1.27-3.36,2.12-6.8,4-9.89,1.31-2.16,2.72-4.25,4.08-6.38-.15,1.89-.3,3.78-.5,5.67l0,.06a.78.78,0,0,0,0,.56c0,.39-.08.78-.13,1.17s.44.34.5.07.11-.48.18-.71a.63.63,0,0,0,.63-.21c1.87-2.06,4.13-3.85,5.71-6.13,1.61,2.25,3.75,4,5.65,6.13a.63.63,0,0,0,.63.21c.07.23.13.46.18.71s.53.21.5-.07-.09-.78-.14-1.16a.76.76,0,0,0,0-.57l0-.08c-.2-1.82-.36-3.62-.49-5.44,1.19,1.88,2.47,3.73,3.68,5.54,2.15,3.24,3.05,6.93,4.4,10.52a.29.29,0,0,0,.57-.08c.15-2.28.68-4.52.87-6.77,1.24,1.49,2.52,3,3.88,4.36a25.73,25.73,0,0,0,2.38,2.17c1.35,1.11,1.54,3,1.59,4.61a.27.27,0,0,0,.54,0,17.22,17.22,0,0,0-.36-6.71,9,9,0,0,0-2-3.1c-1.18-1.45-2.3-2.94-3.46-4.41-1.59-2-3.11-4.08-4.64-6.17-.47-.94-1-1.88-1.45-2.8.44.41.89.81,1.37,1.21a18.84,18.84,0,0,0,13,4.41.44.44,0,0,0,0-.88,8.79,8.79,0,0,1-7-3.55,29.29,29.29,0,0,0,5.06.35c3.79.09,7.67.34,11.46.07a.26.26,0,0,0,.06-.5c-5.52-2.3-12.59-2.24-17.36-6.1-1.44-1.17-2.87-2.77-4.38-4.28-.77-1.9-1.62-3.64-2.34-5.58a121.73,121.73,0,0,1-4.28-13.72,7.42,7.42,0,0,1,.89-.45,26.5,26.5,0,0,0,2.78,2.37c3,2.24,6.85,3.32,10.36,4.55a25.74,25.74,0,0,0,3,2.07,13.45,13.45,0,0,0,1.82.81c2.69,1.71,5.44,3.32,8.13,5,1.51.94,3.09,1.89,4.6,2.91a36.87,36.87,0,0,1,2.44,3,63.53,63.53,0,0,1,5.87,8.86c1.52,3.16,2.14,6.86,4.34,9.65a.19.19,0,0,0,.32-.13c-.4-3.83.06-7.61-.15-11.43a19.14,19.14,0,0,0-1.26-5.83,21.12,21.12,0,0,0,4.31,2c.25.21.48.42.7.62,1.87,1.73,3.68,3.52,5.6,5.2,3.2,2.78,7,5.1,11.35,5a.15.15,0,1,0,0-.3c-4.92-.38-8-4.7-11.09-8.08l-1.43-1.59c3.53.31,7.05.34,10.61.44.19,0,.24-.31.05-.33a59.39,59.39,0,0,1-10.78-2.5c-3.91-1.36-7.22-4-10.23-6.75a59.79,59.79,0,0,0-6.75-5.37l1-.13c4.85-.56,9.33-2.93,14.15-3.39.26,0,.37-.46.07-.5-4.34-.64-8.37-.21-12.7.25-3.89.42-8.24-.91-12-2.18a46.65,46.65,0,0,0-6.18-3.24.39.39,0,0,1-.1-.08,55.13,55.13,0,0,1-4.59-4.05,42.08,42.08,0,0,1-11.4-20.52c-.29-1.32-.53-2.65-.75-4,.15-2.12.25-4.23.32-6.35,0-.46.09-.92.14-1.38.09-1,.17-1.91.25-2.86a53.92,53.92,0,0,0,11.82-3.3,17.16,17.16,0,0,1-3.59,3.22.27.27,0,0,0,.27.47,48,48,0,0,0,10.21-5.85c-.08,1.55-.14,3.09-.26,4.63a4.27,4.27,0,0,1-.65.62c-1.36,1.07-2.51,2.43-3.81,3.59a23.52,23.52,0,0,0-3.67,3.59,22.63,22.63,0,0,0-1.89,4.43c-.05.13.15.2.22.09,1.09-1.65,3.14-2.22,4.62-3.54s3-2.52,4.43-3.9l.15-.15a22.59,22.59,0,0,1-1.68,5.23.23.23,0,0,0,.4.24,32,32,0,0,0,6-15.14c.2-1.52.36-3,.54-4.56a23.68,23.68,0,0,0,1.93-3.53,23.09,23.09,0,0,0,1.93-3.73c.28.8.57,1.59.85,2.39a5.44,5.44,0,0,0,.69,2.26,94.1,94.1,0,0,1,.36,11c0,.79,0,1.58,0,2.37-.14,1.34-.28,2.69-.38,4a77.62,77.62,0,0,1-1.07,10.23c-1.67,2.49-4.06,3.95-6.79,5.46a45,45,0,0,0-5,3.75l-5,3.77c-.35.27,0,.86.36.61a101.36,101.36,0,0,1,11.76-5.85,27.77,27.77,0,0,0,3.22-1.68c-.05.21-.1.42-.14.64-.15.84-.35,1.7-.42,2.55l-.51,1.39a14.85,14.85,0,0,1-.86,1.92l-.35.54a1.19,1.19,0,0,0-.14.31,22.7,22.7,0,0,1-6.3,6.6.22.22,0,0,0,.22.38,38.71,38.71,0,0,0,5-3.32,42.93,42.93,0,0,0,4-3.68c-.14,3.59.49,8.31-2.56,10.67-.39.31.05.84.45.76,4.37-.84,5-6.07,5.49-9.72.36-2.55.91-5.08,1.44-7.61a16.35,16.35,0,0,0,1.87-3.11c.31-.7.6-1.4.89-2.1.51.69,1.05,1.37,1.61,2,.71,1.79,1.27,3.63,1.81,5.49.81,2.83,1.07,4.95,0,7.79-.08.23.29.38.41.16a23.69,23.69,0,0,0,2.63-8.36l.34.42c3.1,4,3.22,11,8.6,13.14.25.1.36-.27.17-.4-2-1.41-2.44-4.66-3-6.89-.66-2.62-1.51-5.18-2.37-7.74-.92-2.77-3-4.84-4.9-7.06-.55-2.14-1.17-4.25-1.61-6.42a36.93,36.93,0,0,1-.55-6.65c.26-2.53.5-5.06.65-7.6a34.92,34.92,0,0,0,14.17,3.43l.43,0,.14.05c3.56,1.36,7.49,1.4,11.07,2.82,3.38,1.33,6.86,2.44,10.17,3.91,1.31.58,2.64,1,3.95,1.61,1.89,1.87,2.81,4.56,3.93,6.93a18.25,18.25,0,0,0,2.68,4.25,30.28,30.28,0,0,0,4,3.22.35.35,0,0,0,.5-.5c-1.25-1.54-1.45-3.71-2.07-5.58-.55-1.66-1-3.35-1.57-5-.17-.49-.36-1-.56-1.44l.54.08c4.53.7,9,1,13.53,1.9a.27.27,0,0,0,.14-.52,51.69,51.69,0,0,1-5.77-2.23c-1.8-.82-3.38-2-5.23-2.8s-3.68-1.47-5.56-2.11c-1-.32-1.85-.86-2.77-1.23a23.85,23.85,0,0,0-5.1-2.85c-1.44-.85-2.95-1.59-4.45-2.32l.66-.2A9.38,9.38,0,0,0,324,323a30.53,30.53,0,0,0,5.45-2.65h0a16.83,16.83,0,0,1,1.74,0c2.07.12,4.11,1.27,5.92,2.17a52.4,52.4,0,0,1,5.4,3,.19.19,0,0,0,.23-.29c-3-2.93-6.08-5.65-10.06-7.1a28.6,28.6,0,0,1,4.9-3c.15-.07,0-.27-.1-.25-2.18.33-4.33.37-6.49.6.69-1.31,1.3-2.66,2.07-3.94s2.32-2.6,3.08-4a.31.31,0,0,0-.27-.46c-2.53-.19-5,4-6.43,5.55-1.24,1.32-2.54,2.6-3.84,3.87-2.07.46-4.15.9-6.23,1.21-2.62.39-5.2.77-7.79.95-2.36-.43-4.68-1-7-1.48-3.53-.67-6.71-1.56-9.49-3.58a61.79,61.79,0,0,1-4-6.74,83.7,83.7,0,0,1-6.87-16.26,5.29,5.29,0,0,1,1-.48,16.77,16.77,0,0,1,2.24.83c2.57,1.22,4.41,4.19,5.82,6.52a41,41,0,0,0,5.63,7.76c2.41,2.45,5.7,3.81,8.2,6.18.23.22.63-.07.45-.35-1.78-2.79-4.24-5.06-6.15-7.75a42.53,42.53,0,0,1-5.2-9.55c-.1-.29-.2-.59-.28-.89a15.69,15.69,0,0,1,1.8,1.06,22.74,22.74,0,0,1,2.72,2.57,33.46,33.46,0,0,0,5.77,4.26c1.74,1.09,3.52,2.22,5.64,2.16.09,0,.12-.15,0-.17a6.06,6.06,0,0,1-4.56-3.53c3.52-.09,7.37-1.81,10.67-1.1.22,0,.37-.26.16-.37a14.73,14.73,0,0,0-6-1.42c-2.11-.15-4.13-.13-6.19-.31a20.37,20.37,0,0,0-2.44-5.2l-.07-.09,1.56-.3a42.84,42.84,0,0,1,8.69-.54.15.15,0,0,0,0-.3A50.22,50.22,0,0,1,299,286.18c-4-1.61-8.93-3.06-12.39-5.84a8.61,8.61,0,0,1-1.43-3.41,37.07,37.07,0,0,0,4.14-5.95,6.83,6.83,0,0,1,3.11.07c2.86.6,5.34,2.89,8.29,3.07q2.7,1.25,5.46,2.4c.72.36,1.45.7,2.18,1a104.24,104.24,0,0,0,10.37,4.15c2.69,1.15,5.37,2.36,8,3.69,3.67,1.87,7.45,3.86,10.23,6.95,2.16,2.41,3.32,5.69,4.2,8.74,1,3.58,1.56,7.26,2.51,10.86A49.16,49.16,0,0,1,345,322.4a.18.18,0,0,0,.34.05,86.57,86.57,0,0,0,3.2-11.48c.23.35.46.7.7,1a14.84,14.84,0,0,0,5.93,4.77c.59.27,3.74,1.36,3.67-.24a.06.06,0,0,0,0-.06c-.52-.23-1.06-.25-1.6-.51a9.94,9.94,0,0,1-2.73-2.28,27.58,27.58,0,0,1-4.46-6.34c-.32-.6-.6-1.2-.88-1.81a28.45,28.45,0,0,0-.31-5.42,29.62,29.62,0,0,0-1.05-4.47c.68,0,1.37-.08,2.08-.17a13.17,13.17,0,0,0,5.22-2.29c1.86.41,3.67,1,5.5,1.51a45.37,45.37,0,0,1,6.49,2.27,41.74,41.74,0,0,0,5.69,2.19.24.24,0,0,0,.18-.43c-2-1-3.83-2.18-5.69-3.36A46.54,46.54,0,0,1,363,292.1a13.51,13.51,0,0,0,1.37-.23A7.68,7.68,0,0,0,369.7,288c.16-.33-.2-.81-.56-.55-1.95,1.44-4.18.81-6.32.13a24.56,24.56,0,0,0-6.48-1.2,20.44,20.44,0,0,0-6.71,1.26,10.74,10.74,0,0,1-3.35.19,4.74,4.74,0,0,1-2.31-1.38c-1.73-1.59-3.11-3.51-4.88-5.06-.19-.17-.39-.33-.59-.49,0,0,0-.05-.05-.06a17.23,17.23,0,0,0-8.76-5.21l-1.77-.48c-2.08-1.28-4.19-2.51-6.35-3.65a9,9,0,0,0-1.28-.52l.62-.08c2.85-.4,5.72-.72,8.58-1a83.08,83.08,0,0,1,8.32-.59c2.31.52,4.61,1.09,7,1.51,4.61.81,9.56,1.55,13.62,4,1.71,1,2.83,2.75,4.14,4.21s3,2.7,4.52,4.14c.13.13.3,0,.24-.18-.91-2-.75-4.45-1.24-6.59a11.7,11.7,0,0,0-3.64-5.75,13.85,13.85,0,0,0-2-1.46,14.62,14.62,0,0,0,3.91-2.14,20.29,20.29,0,0,0,2-1.8c1-.12,1.94-.21,2.91-.31a61.57,61.57,0,0,0,6.47-1c2.56-.53,5.1-1.59,7.72-1.75.46,0,.63-.78.11-.86a37.88,37.88,0,0,0-6.72-.58c-2.32.05-4.61.38-6.91.53a30.48,30.48,0,0,0,1.57-2.72c.74-1.41,1-3,1.79-4.42.41-.74-.64-1.64-1.22-.94a52,52,0,0,1-5.37,5.23,14.05,14.05,0,0,1-6.15,3.61,25.94,25.94,0,0,1-6.36.57,33.18,33.18,0,0,0,6.2-5.65c2.92-3.55,3.61-8.19,3.69-12.67,0-.41-.66-.52-.73-.1-.7,4.47-4.66,6.58-8,9.13a69.79,69.79,0,0,1-10.18,6.86q-.4.21-.84.39c-1.46.13-2.95.17-4.45.2-5.29.09-10.59.61-15.87,1-2.5.18-5.05.17-7.59.12-1.11-.14-2.21-.23-3.29-.29a47.93,47.93,0,0,1-7.78-1.17c-1.6-.83-3.29-1.48-4.13-2.73a2.79,2.79,0,0,1,0-2.49c.81-.18,1.63-.38,2.44-.6a48.92,48.92,0,0,0,11.86-5.18,39.87,39.87,0,0,0,5-3.53,28.91,28.91,0,0,1,7.11-.94l3,.67c.53.26,1.06.54,1.58.83,2.39,1.37,4.34,3.29,6.77,4.61a18.66,18.66,0,0,0,7.39,2.41.29.29,0,0,0,.14-.53c-2.64-1.53-4-3.86-5.8-6.16,1.7,0,3.4-.19,5.13-.4a40.56,40.56,0,0,0,5.25-.9,18,18,0,0,0,5.29-1.8.38.38,0,0,0,0-.64c-2.61-1.61-6.79-1.36-9.74-1.36A48.82,48.82,0,0,1,336,240.36c-1.19-.26-4.38-1.25-7.81-2a38.4,38.4,0,0,0,3.8-4.71l.51-.46c.53-.48,1.08-.93,1.64-1.37.53-.1,1.06-.21,1.62-.27a22.44,22.44,0,0,1,2.47-.13,25.44,25.44,0,0,0,4.55,1.07l.27.07.33.11,3.59,1.12c1,.37,2,.78,2.91,1.2,4.34,1.92,8.47,4.25,12.91,5.95a30.45,30.45,0,0,0,6.71,1.7c1.24.5,2.62.73,3.89,1.16s2.62.85,3.91,1.32a23.13,23.13,0,0,1,6.38,3.78,14,14,0,0,0,5.69,3.06.27.27,0,0,0,.14-.52c-2.76-.94-3.3-3.9-4.34-6.31a9.85,9.85,0,0,0-2.06-3.07c4.15-.89,8.19-2.26,12.4-2.93C395.83,239.11,395.75,238.64,395.45,238.63Zm-186.82,7.08c-5.24-.87-8.55-2.78-10.25-7.3s5.56-7.25,6.27-9.51a2.68,2.68,0,0,1,1.73-1.88,10.65,10.65,0,0,1,3.33,1.77c1.78,1.78,4.57,3.13,9.4,2.45C221.53,236.05,213.87,246.58,208.63,245.71Zm4.78,32.75c-2-1.43,1.79-.59,5,.18s-.64-2.92-3.84-4.34c-5.54-2.46-5.31-10.81-4.13-9.07s2.84,3.9,4.38,4.72c4.61,2.43,2.92-2.53.52-4.93-1.26-1.26-2.24-5.94-1.67-6.84s2.45,2.07,3.21,2.48c1.92,1,4.36,2.09,6.6,3,2.79,1.15,5.29,2.07,6.15,2.41a16,16,0,0,1,3.47,2.07c1,2.29,2.17,4.13,2.08,5.62a4.8,4.8,0,0,1-1.91,3.59c-2.26,1.82-6.09,2.45-9,3.76C218.2,283.87,214.51,279.24,213.41,278.46Zm48.8,24.45c-2.52,2.53-2-2.61-3.51-4.08s-2.17,8.2-3.27,5.91c.14-.37-1.24-6.24-1.25-6.28-.47-2.17-1.5-2.36-1.5-2.36-1.63-.57.67,5.08-.64,8a18,18,0,0,0-1.53,1,5.49,5.49,0,0,1-1-1c-1.36-1.8-3.11-4.93-4.22-4.93-1.65,0,2.59,6.4,0,6.83s-2.82-2.83-3.91-3.91-2.89,0-2.89,0c-1.35,0-1.84,7-4.95,5.3s-1.06-9.54-3.46-8.9-1.27,7.77-3.88,6.21-2.45-5.84-3.2-5.84-.38,4.45-2.22,1.34.56-9.18-.35-9.18-5.09,7.91-4.24,2.12a9.65,9.65,0,0,1,6.24-7.51c4.66-2.3,12.73-4.72,14.62-5.28a2.83,2.83,0,0,1,.41-.1h.06s23.6,2.48,26.84,9.13C265.71,294.28,264.47,300.65,262.21,302.91Zm32.22-107.24-.28.21c-5.5,4.39-8.64,1.15-8.64-1.84,3.27-3.27,6-6.79-.88-6.79-3.55,0-5.37,1.87-5.81,4.19a7.76,7.76,0,0,0,2.25,6.67s2.47,12.18.8,13.9h0c-1.69,1.68-5.9,10.67-5.06,12.77.45,1.12,2.36,4.83,3.91,8.74a28.57,28.57,0,0,1,2.06,7.33,6.48,6.48,0,0,1-.07,1.9c-.71,3.35-10.75,7.73-15.9,11.54h0c-3.71,2.21-3.95,5.86-5.69,9.13a10.21,10.21,0,0,1-4.14,4.28c-5.59,3.19,2,3.45,6.46-.45,3.49-3,.18,5.21-3.56,6.89-3.23,1.45,1.35,2.28,6.08-1.47,3.16-2.5-.89,4.06-2.15,5l-.2.12c-.59.18-.77.31-.66.36a19.87,19.87,0,0,1-4.54,1.73,11.14,11.14,0,0,1-2.33.15h-.19c-7.19-.42-15.88-3.13-15.93-6.67,0-1.45,1.24-3.21,2.11-5.38,0-.1.07-.19.11-.28a13.71,13.71,0,0,1,2.85-1.63,14.48,14.48,0,0,0,3.46-1.95,9.62,9.62,0,0,0,2.24-2.28h0a2.73,2.73,0,0,0,.49-2.47c-.84-2.2-1-.9-1.68.23a2.15,2.15,0,0,1-1.13,1,26.47,26.47,0,0,1-17.91,1.47,8.83,8.83,0,0,1-4.86-4.22c-.56-1.17.6-5.21.61-9.81,0-2.37-2.18-4.88-2.31-7.23-.1-1.72,1.71-3.35,1.93-4.77a9.43,9.43,0,0,0-.75-5,6,6,0,0,0-.17-.67.18.18,0,0,1,0,0h0c-.13-.43-.3-.88-.47-1.37a4.68,4.68,0,0,1-.34-2.45c0-.87-1.6-1.61-3.76-3.08-.76-.52-1.4-1.33-2.29-2h0a.1.1,0,0,0-.05,0c-.18-.14-.36-.27-.56-.4-4.3-2.84-13.06-3.9-17-2.29h0c-4.84-1.37-5.86-4.94-8.07-7.16-3.48-3.48,9.76-20.84,9.76-20.84-2.56-2.55-9.74-5.59-12.73-5.11s.77,3.67,3.08,4.53-2.31,7.24-6.85,5.31-11.87-8.78-5.4-15.24a8.46,8.46,0,0,1,5.65-2.36c6.16-.42,14.24,3.34,20.61,3.74a14.7,14.7,0,0,0,2.49,0c8.69-1,9.38-3,8.56-3.86s-21.51-6.76-5.11-6.76c6.15,0,12.06,4.36,16.43,6.11l2.38.94a52.49,52.49,0,0,0,8.53,2.72,8.05,8.05,0,0,0,1.44.2c.34,0-.23-.94-1.27-2.56h0s-3.07-8.35,0-8.35c3.23,0,5,8.61,5,12.35s5.25-4.12,16.67-7.67-3.48,5.24-1.36,5.24c1.08,0,12.34-3.29,14.75-2.86,2.26.41-4.33,4.47-2.53,6.28,1,1,2.88.94,5.17.35a52.18,52.18,0,0,0,5.23-1.77c5.35-2,11.29-4.59,14.63-3.24,0,0,3.05,5,3.05,7.59,0,2.32-4.81,8.21-5.89,9.5A.62.62,0,0,0,294.43,195.67Z"/><path class="cls-2" d="M270.46,221.67c-.09-.42-.86-.25-4-.88-2.46-.49-5.36-1.31-7.95-.42-2.12.72-3,2.28-4.2,3.1-2.17,1.47-3.73,2.21-3.77,3.08a4.78,4.78,0,0,1-.33,2.45c-.54,1.51-1.07,2.65-.48,3.9.73,1.6,1.64,1.6,2.79-.36,1.27-2.16-.35-4.31,2.18-4,4.83.68,7.62-.67,9.4-2.45S270.91,223.9,270.46,221.67Z"/><path class="cls-3" d="M63.57,123.58l8.06-10.92a3.13,3.13,0,0,0,.35-.38,2,2,0,0,1,.25-.22,12.53,12.53,0,0,1,7.93-3.46,11.25,11.25,0,0,1,6.36,1.4,5,5,0,0,1,.45.25l.21.16c1.28.94,3.18,2.37,5.68,4.27a3.85,3.85,0,0,1,.45.25l.11.08.15.11a11.79,11.79,0,0,1,2.68,3,11.37,11.37,0,0,1,1.54,3.79c.08.32.15.7.22,1.12a9.61,9.61,0,0,1,0,1.2c0,1.23.26,2,.77,2.33a7.61,7.61,0,0,0,1.91.69l11.39,2.3a5.33,5.33,0,0,1,.81.2l.7.35c1.07.52,1.36,1.65.88,3.38s-1.34,2.65-2.51,2.65a2.7,2.7,0,0,1-.41,0,1.93,1.93,0,0,0-.43-.07q-4-.83-12.25-2.45a21.85,21.85,0,0,0-3.58-.48c-.8,0-1.66.62-2.58,1.87l-1.34,1.82c-.77,1-.93,1.84-.48,2.38a7.35,7.35,0,0,0,1.58,1.57l9.41,6.94q1.68,1.32-.14,4c-.1.14-.19.26-.26.37q-1.69,2.28-3.3,1.1-11.46-8.53-34.4-25.54a2.58,2.58,0,0,1-.47-.67,2.53,2.53,0,0,1-.33-1.61c0-.25.06-.52.1-.8a5.37,5.37,0,0,1,.25-.54c.09-.2.12-.29.1-.25l0,0,.08-.1Zm23.16,8.33,4-5.4a3.92,3.92,0,0,0,.7-1.5,4.87,4.87,0,0,0-.07-1.65,6,6,0,0,0-1.95-3.12l-5.87-4.34a6.45,6.45,0,0,0-2.81-.87c-1.06-.08-2.4.53-4,1.86l-3.84,5.2c-1.07,1.45-1.34,2.51-.81,3.17a6.19,6.19,0,0,0,1.28,1.42L76.5,129,81.85,133c1.39,1,2.44,1.27,3.16.73A10.94,10.94,0,0,0,86.73,131.91Z"/><path class="cls-3" d="M118.71,70.6a12,12,0,0,1,4,.62,6.38,6.38,0,0,1,3.14,2.21l16.89,21.4a9.22,9.22,0,0,1,1.82,4.08,11,11,0,0,1-.12,4.54,13.24,13.24,0,0,1-2,4.23,18.29,18.29,0,0,1-3.62,3.76,22.69,22.69,0,0,1-3.78,2.4,14.11,14.11,0,0,1-4.43,1.28,10.07,10.07,0,0,1-4.81-.57,8.86,8.86,0,0,1-4.19-3q-5.66-7.15-16.89-21.4a7.63,7.63,0,0,1-1.65-4,10.41,10.41,0,0,1,.47-4.41,15.27,15.27,0,0,1,2.13-4,21,21,0,0,1,3.59-3.58,17.06,17.06,0,0,1,4.84-2.74A13.66,13.66,0,0,1,118.71,70.6Zm-8.92,13.21a3.55,3.55,0,0,0-.21,1.4,1.76,1.76,0,0,0,.32.82l16.89,21.41a3,3,0,0,0,1.34,1.08,5,5,0,0,0,1.7.06,7.29,7.29,0,0,0,2.44-.77,13.16,13.16,0,0,0,2.48-1.55,10.89,10.89,0,0,0,2.31-2.39,5.85,5.85,0,0,0,1-2,3.67,3.67,0,0,0,.1-1.65,3.2,3.2,0,0,0-.64-1.22q-5.59-7.11-16.89-21.41.24.3-.27,0a3.44,3.44,0,0,0-1.61-.38,7.47,7.47,0,0,0-2.46.54,9.39,9.39,0,0,0-3,1.68,12.57,12.57,0,0,0-2.4,2.38A8,8,0,0,0,109.79,83.81Z"/><path class="cls-3" d="M167.25,44.74A11.71,11.71,0,0,1,171,46.38a6.41,6.41,0,0,1,2.46,3q3.57,8.38,10.69,25.08a9.16,9.16,0,0,1,.69,4.41,10.75,10.75,0,0,1-1.31,4.35,13,13,0,0,1-3.05,3.55A17.92,17.92,0,0,1,176,89.41a22.94,22.94,0,0,1-4.28,1.34,14.25,14.25,0,0,1-4.61.06A9.93,9.93,0,0,1,162.6,89a9,9,0,0,1-3.26-4q-3.57-8.38-10.7-25.08a7.73,7.73,0,0,1-.55-4.26,10.38,10.38,0,0,1,1.61-4.13,15.18,15.18,0,0,1,3.1-3.29,20.9,20.9,0,0,1,4.4-2.51,17.15,17.15,0,0,1,5.39-1.38A13.4,13.4,0,0,1,167.25,44.74ZM155.19,55.15a3.24,3.24,0,0,0-.58,1.3,1.6,1.6,0,0,0,.1.87q3.57,8.38,10.69,25.08a3.07,3.07,0,0,0,1,1.4,5.09,5.09,0,0,0,1.62.5,7.28,7.28,0,0,0,2.55-.1,13.29,13.29,0,0,0,2.8-.85,10,10,0,0,0,2.85-1.71,5.78,5.78,0,0,0,1.53-1.7,3.66,3.66,0,0,0,.53-1.56A3.52,3.52,0,0,0,178,77Q174.46,68.71,167.31,52c.1.24,0,.2-.26-.1a3.35,3.35,0,0,0-1.46-.78,7.37,7.37,0,0,0-2.51-.13,9.66,9.66,0,0,0-3.29.84,12.94,12.94,0,0,0-2.94,1.68A7.62,7.62,0,0,0,155.19,55.15Z"/><path class="cls-3" d="M224.82,29q2.82-.36,3.21,2.65l0,.12c.26,2.05-.17,3.22-1.31,3.5a1.34,1.34,0,0,0-.44.12,1,1,0,0,1-.37.11l-5.9.77c-1.54.2-2.36.7-2.48,1.49a7.52,7.52,0,0,0-.08,2.36q1.46,11.22,4.37,33.64.6,3.63-2.73,4.07c-2.23.24-3.48-.74-3.77-3Q213.9,63.75,211,41.52c-.29-1.88-.91-3-1.86-3.28a5.88,5.88,0,0,0-2.33-.35l-5.31.69q-2.94.45-3.44-2.88v-.06q-.41-3.14,2.08-3.53h.13c.43,0,2.64-.28,6.61-.8S216.83,30,224.82,29Z"/><path class="cls-3" d="M280.15,38a4.12,4.12,0,0,1,.29.76,2.82,2.82,0,0,1,.13.87,2.51,2.51,0,0,1-.1.77,5.33,5.33,0,0,1-.31.8,2.58,2.58,0,0,1-.49.65,3.53,3.53,0,0,1-.66.49,1.35,1.35,0,0,1-.7.36,6,6,0,0,1-.81.21,5,5,0,0,1-.84,0l-.75-.24a2.09,2.09,0,0,1-.72-.49,7.08,7.08,0,0,1-.57-.54.57.57,0,0,1-.21-.35,2.87,2.87,0,0,0-.21-.36,6.66,6.66,0,0,0-1.55-2.44c-.58-.52-1.93-.93-4.07-1.23a10.42,10.42,0,0,0-4.12.07A6.58,6.58,0,0,0,262,38.4a5.36,5.36,0,0,0-1.35,1.76,4.26,4.26,0,0,0-.47,1.89,7,7,0,0,0,.5,1.12,9.62,9.62,0,0,0,1.73,2.07c.84.81,1.82,1.69,2.95,2.64s2.37,1.83,3.59,2.79,2.5,1.94,3.75,2.94a27.52,27.52,0,0,1,3.4,3.23,16.54,16.54,0,0,1,2.6,3.76,7.26,7.26,0,0,1,.72,4.54v.19a13.65,13.65,0,0,1-3.06,7.27,14.2,14.2,0,0,1-5.63,4.29,13.3,13.3,0,0,1-7.18.94,22,22,0,0,1-6.34-2.2,13.2,13.2,0,0,1-6-6.67,3.07,3.07,0,0,1-.28-.82,2.54,2.54,0,0,1-.14-.8c0-.26.07-.54.11-.83a5.21,5.21,0,0,1,.3-.74,3.85,3.85,0,0,1,.55-.64,3.29,3.29,0,0,1,.6-.57,2.34,2.34,0,0,1,.76-.29,2.6,2.6,0,0,1,.81-.14,1.87,1.87,0,0,1,.84.05,2.73,2.73,0,0,1,.75.24,3.7,3.7,0,0,1,.66.42c.23.2.44.41.63.61a2.69,2.69,0,0,1,.21.35c.06.14.11.26.14.35q1.51,3.15,3.48,4a15.43,15.43,0,0,0,3.89,1.14,7.28,7.28,0,0,0,5.56-1.5,6.55,6.55,0,0,0,2.87-4.62,2.49,2.49,0,0,0,0-.53c0-.08,0-.19,0-.32a2.41,2.41,0,0,0-.3-1.09,6.41,6.41,0,0,0-1.41-2,25.45,25.45,0,0,0-2.71-2.54L265,55.91c-1.21-1-2.45-1.91-3.7-2.88a42.12,42.12,0,0,1-3.48-3.1,24.34,24.34,0,0,1-2.9-3.48A7.71,7.71,0,0,1,253.6,42a10.23,10.23,0,0,1,.08-1.49,11.38,11.38,0,0,1,1-3.25,10.49,10.49,0,0,1,3.17-4,12.59,12.59,0,0,1,5.05-2.48,17.35,17.35,0,0,1,6.63-.24,13.54,13.54,0,0,1,7,2.82A11.33,11.33,0,0,1,280.15,38Z"/><path class="cls-3" d="M360,65.93l12.23,9.44a1.54,1.54,0,0,1,.37.37l.25.2a13,13,0,0,1,2,3.51,9.44,9.44,0,0,1,.71,3.74,11.18,11.18,0,0,1-.52,3.43,20,20,0,0,1-1.19,2.91q-.19.34-.27.45l-.2.26q-5.28,6.86-16,20.57a2.81,2.81,0,0,1-.27.45l0,0-.16.2a12.14,12.14,0,0,1-4,2.78,9.42,9.42,0,0,1-4.28.78A9.93,9.93,0,0,1,344.9,114a16.16,16.16,0,0,1-2.95-1.79q-3.48-2.76-10.6-8.26a2.32,2.32,0,0,1-.61-.47,2.87,2.87,0,0,1-.59-.62,2.13,2.13,0,0,1-.32-.74,1.93,1.93,0,0,1-.2-.8,2.39,2.39,0,0,1,0-.79,6.38,6.38,0,0,1,.22-.81c0-.13.09-.26.13-.39l.24-.31q8.58-11,25.56-33a5.15,5.15,0,0,1,.73-.42,4,4,0,0,1,.79-.29,1.93,1.93,0,0,1,.83,0c.25,0,.51.07.8.13a3.77,3.77,0,0,1,.54.25c.19.1.27.13.24.11l-.05,0,.05,0Zm-19.61,36.61,5.68,4.39a10.52,10.52,0,0,0,1.7,1.07,4.71,4.71,0,0,0,1.44.46,3.52,3.52,0,0,0,1.22-.21,5.05,5.05,0,0,0,1.73-1.28l15.75-20.4a11,11,0,0,0,.78-1.85,7.31,7.31,0,0,0,.3-1.56,4.61,4.61,0,0,0-.25-1.26,4.56,4.56,0,0,0-.85-1.55l-6.65-5.13c-1.39-1.08-2.43-1.36-3.1-.85a6.5,6.5,0,0,0-1.49,1.3l-2.45,3.17L339.82,97.41c-1.24,1.6-1.56,2.76-1,3.49A8.64,8.64,0,0,0,340.34,102.54Z"/><path class="cls-3" d="M404.05,106.63q2.85,3.84,11.39,15.45a3.45,3.45,0,0,1,.85,2,3.4,3.4,0,0,1-.54,2.41.71.71,0,0,1-.23.34l-.37.27-5.08,3.77a5.2,5.2,0,0,1-.71.45,6.07,6.07,0,0,1-.74.31.72.72,0,0,1-.39.12,1.81,1.81,0,0,1-.41,0q-10.77,0-32.28,0c-1.32.33-1.93.92-1.83,1.76a4.32,4.32,0,0,0,.72,2L383,147q1.47,2-.75,3.86c-1.52,1.28-2.79,1.58-3.83.91a1.44,1.44,0,0,1-.32-.33l-.24-.31q-4.11-5.55-12.45-16.67a.2.2,0,0,1,0-.14c0-.09,0-.11.05,0a.25.25,0,0,0-.17-.11c-.09-.05-.1,0-.05,0l-.08-.11-.05,0a6.33,6.33,0,0,1-.31-.74,3.83,3.83,0,0,1-.26-1.33c0-.06.14-.43.39-1.1a4.86,4.86,0,0,1,1.87-2l3.89-2.89a5.27,5.27,0,0,1,.72-.45c.23-.12.46-.24.7-.35a1.42,1.42,0,0,1,.42-.08,2.8,2.8,0,0,1,.42,0h32.51c.21,0,.69-.38,1.41-1.13s.66-1.64-.1-2.74q-2.62-3.52-7.73-10.52-1.28-1.94,1.31-3.87C402,105.65,403.25,105.56,404.05,106.63Z"/><path class="cls-3" d="M74.92,308.24q-4.1,3.67-16.48,14.6a1.26,1.26,0,0,0-.31,1.57,1.16,1.16,0,0,0,1.47.63l8.17-1.72A2.33,2.33,0,0,1,70,325.08c.39,1.14.3,1.92-.29,2.35,0,0,0,0,0,.07l-.09,0s-.07,0-.06.08c-1.37,1.18-3.42,3-6.13,5.38a1.73,1.73,0,0,0-.36,1.49c.09.73.59,1,1.51.82l21.66-4.58a1.53,1.53,0,0,1,1.89.94,6,6,0,0,1,.31.84q.55,2.14-.63,2.73l-.08.05a.77.77,0,0,0-.27.08.9.9,0,0,1-.28.08l-30.3,6.39a1.67,1.67,0,0,1-.59,0,1.45,1.45,0,0,1-.59-.12,1.8,1.8,0,0,1-.5-.28,3.57,3.57,0,0,1-.46-.4l-.21-.21-.13-.25c-.29-.59-.73-1.45-1.3-2.6a3.39,3.39,0,0,1-.13-.57,1.35,1.35,0,0,1,0-.61,1.37,1.37,0,0,1,.15-.54c.08-.19.16-.37.25-.55a.59.59,0,0,1,.19-.25l.21-.21,3-2.65c.57-.53.66-1,.25-1.38a1.11,1.11,0,0,0-1.26-.42c-.88.19-2.2.47-3.95.82a3.31,3.31,0,0,1-.63,0,1.82,1.82,0,0,1-.54-.15,1,1,0,0,1-.51-.27,4.55,4.55,0,0,1-.46-.4.53.53,0,0,1-.21-.21l-.15-.3-1.19-2.39a3.39,3.39,0,0,1-.13-.57,1.35,1.35,0,0,1,0-.61,1.54,1.54,0,0,1,.14-.54c.09-.19.17-.37.26-.55a.56.56,0,0,1,.18-.25l.21-.21,23.08-20.52a2.88,2.88,0,0,1,.44-.28c.83-.38,1.68-.07,2.57.93C75.76,306.45,75.82,307.44,74.92,308.24Z"/><path class="cls-3" d="M95.74,341.69q2.06,2.74,8.32,10.89a1.47,1.47,0,0,1,.19,1.4,3.48,3.48,0,0,1-1.25,1.38,3.86,3.86,0,0,1-1.63.66,1.08,1.08,0,0,1-1-.37l-5.52-7.18c-.77-1-1.44-1.38-2-1.17a5.62,5.62,0,0,0-1.47.78L87.52,351c-1,.8-1.45,1.5-1.24,2.08a5.05,5.05,0,0,0,.65,1.23l3.89,5.06a1.2,1.2,0,0,1,0,1.43,3.77,3.77,0,0,1-1.32,1.37,3.29,3.29,0,0,1-1.34.56,1.07,1.07,0,0,1-1.12-.44l-3.92-5.1c-.69-.89-1.31-1.22-1.88-1a5,5,0,0,0-1.51.81q-1.42,1.08-4.24,3.26c-1,.77-1.4,1.43-1.2,2a5.54,5.54,0,0,0,.67,1.26l5.62,7.29q.82,1.38-.78,2.61l-.22.18c-1.28.86-2.17.95-2.69.28q-2.78-3.6-8.26-10.82a3.88,3.88,0,0,1-.39-.42,3.6,3.6,0,0,1-.26-.57,3.65,3.65,0,0,1-.13-.55,2.91,2.91,0,0,1,0-.6,2.66,2.66,0,0,1,.2-.58c.1-.18.18-.35.27-.5l.2-.27.23-.17q8-6.12,24.07-18.47a4.59,4.59,0,0,1,.59-.16,1.58,1.58,0,0,1,.57,0,1.34,1.34,0,0,1,.58.14,3.1,3.1,0,0,1,.58.21,2.74,2.74,0,0,1,.33.28l.15.12,0,0s0,0,0,.07A.54.54,0,0,1,95.74,341.69Z"/><path class="cls-3" d="M112.84,362.61l6.2,5.82a8.58,8.58,0,0,1,3,6.65,10.71,10.71,0,0,1-2.09,6.48,10.29,10.29,0,0,1-2.45,2.34,8.32,8.32,0,0,1-3.15,1.42,3.73,3.73,0,0,1-.83.06,5.42,5.42,0,0,0-.79,0,5.43,5.43,0,0,0,.26.95,4.7,4.7,0,0,1,.13,1,9.43,9.43,0,0,1-.89,3.55,12.3,12.3,0,0,1-2,3,10.87,10.87,0,0,1-2.89,2.19,10.06,10.06,0,0,1-3.46,1.13,8.92,8.92,0,0,1-3.86-.41,8.76,8.76,0,0,1-3.62-2.11q-2.3-2.22-6.92-6.56a1.9,1.9,0,0,1-.41-.39,1.75,1.75,0,0,1-.38-.49,1.78,1.78,0,0,1-.18-.55,1.39,1.39,0,0,1-.09-.6,2,2,0,0,1,.08-.57,4.82,4.82,0,0,1,.22-.57l.12-.27.2-.2q7-7.36,20.81-22.08a4.6,4.6,0,0,1,.55-.25,3.29,3.29,0,0,1,.6-.15,1.38,1.38,0,0,1,.6,0l.57.15a2.47,2.47,0,0,1,.37.22c.13.08.19.11.17.09l0,0,0,0ZM96.15,387.78l3.56,3.34a5.15,5.15,0,0,0,1.8,1.18,4.36,4.36,0,0,0,1.76.11,5.49,5.49,0,0,0,1.81-.62,6,6,0,0,0,1.62-1.25,5.89,5.89,0,0,0,1.11-1.66,4.94,4.94,0,0,0,.48-1.81,3.94,3.94,0,0,0-.25-1.59,3.8,3.8,0,0,0-.91-1.43,1.39,1.39,0,0,0-.34-.19.93.93,0,0,1-.1-.16l.07.06a1.34,1.34,0,0,0,.34.26l-.31-.22-.17-.17-.14-.12-3.59-3.38c-.89-.84-1.6-1.09-2.12-.77a5.42,5.42,0,0,0-1.26.94L96,384c-1,1-1.27,1.83-.92,2.42A6.49,6.49,0,0,0,96.15,387.78Zm10.19-11,3.42,3.22a4.3,4.3,0,0,0,1.82.74,4.09,4.09,0,0,0,1.56-.09,4.37,4.37,0,0,0,1.6-.74,4.94,4.94,0,0,0,.94-.8,3.89,3.89,0,0,0,.39-.47,5.87,5.87,0,0,0,1.26-3.33,4.28,4.28,0,0,0-1.57-3.41c-.6-.56-1.49-1.39-2.67-2.51-.94-.88-1.67-1.15-2.19-.83a4.78,4.78,0,0,0-1.17.84l-3.53,3.76c-.93,1-1.21,1.77-.86,2.35A6.6,6.6,0,0,0,106.34,376.8Z"/><path class="cls-3" d="M135.37,382.3l9.33,6.23a1.14,1.14,0,0,1,.29.25l.19.13a9.55,9.55,0,0,1,1.64,2.45,7,7,0,0,1,.71,2.67,8.12,8.12,0,0,1-.21,2.52,13.79,13.79,0,0,1-.72,2.17l-.17.34-.13.2q-3.5,5.24-10.55,15.71a2.53,2.53,0,0,1-.17.34l0,0-.11.15a8.78,8.78,0,0,1-2.77,2.22,6.75,6.75,0,0,1-3.06.78,7.33,7.33,0,0,1-2.76-.6,11.94,11.94,0,0,1-2.23-1.15q-2.67-1.85-8.1-5.46a1.86,1.86,0,0,1-.47-.32,2,2,0,0,1-.45-.41,1.55,1.55,0,0,1-.28-.52,1.56,1.56,0,0,1-.18-.58,1.79,1.79,0,0,1,0-.57,2.9,2.9,0,0,1,.12-.6c0-.1,0-.19.07-.29l.16-.23q5.67-8.41,16.88-25.21c.16-.12.33-.23.51-.34a3,3,0,0,1,.56-.24,1.34,1.34,0,0,1,.6-.05,4.27,4.27,0,0,1,.59.05,3.17,3.17,0,0,1,.4.15c.15.07.21.09.18.07l0,0,0,0ZM123,409.83l4.33,2.9a8.2,8.2,0,0,0,1.29.69,3.43,3.43,0,0,0,1.07.26,2.5,2.5,0,0,0,.87-.21,3.72,3.72,0,0,0,1.19-1l10.4-15.58a7.28,7.28,0,0,0,.47-1.38,5.12,5.12,0,0,0,.15-1.15,3.83,3.83,0,0,0-.25-.9,3.12,3.12,0,0,0-.69-1.08L136.73,389c-1.07-.71-1.83-.86-2.29-.45a4.63,4.63,0,0,0-1,1L131.81,392l-9.47,14.18c-.82,1.23-1,2.09-.53,2.58A5.86,5.86,0,0,0,123,409.83Z"/><path class="cls-3" d="M160.11,397.41q3.09,1.47,12.45,5.75a1.51,1.51,0,0,1,.82,1.15,3.46,3.46,0,0,1-.47,1.81,3.75,3.75,0,0,1-1.13,1.34,1.09,1.09,0,0,1-1,.14l-8.25-3.77c-1.14-.53-1.91-.55-2.33-.09a5.37,5.37,0,0,0-.94,1.38c-.45,1-1.12,2.43-2,4.39-.54,1.2-.59,2-.12,2.42a4.83,4.83,0,0,0,1.14.78l5.81,2.66a1.23,1.23,0,0,1,.65,1.28,3.84,3.84,0,0,1-.53,1.83,3.44,3.44,0,0,1-.92,1.12,1.06,1.06,0,0,1-1.2.13l-5.85-2.68c-1-.47-1.73-.46-2.12,0a5.09,5.09,0,0,0-1,1.42c-.5,1.08-1.24,2.71-2.23,4.87-.52,1.14-.56,1.91-.13,2.31a5.22,5.22,0,0,0,1.18.8l8.37,3.84q1.38.82.54,2.67l-.12.25c-.72,1.36-1.47,1.86-2.24,1.51q-4.14-1.89-12.36-5.71a4.14,4.14,0,0,1-.53-.19,2.89,2.89,0,0,1-.5-.39,2.07,2.07,0,0,1-.37-.42,3.38,3.38,0,0,1-.27-.54,3.1,3.1,0,0,1-.09-.61v-.57a2.61,2.61,0,0,1,.06-.33l.11-.26q4.24-9.16,12.67-27.57a5.92,5.92,0,0,1,.45-.41,1.8,1.8,0,0,1,.49-.29,1.47,1.47,0,0,1,.59-.15,3.78,3.78,0,0,1,.6-.08,3,3,0,0,1,.43.09l.19,0,0,0c-.05,0,0,0,0,.06Z"/><path class="cls-3" d="M198.89,415.86a3.21,3.21,0,0,1,.14.58,2,2,0,0,1,0,.64,1.74,1.74,0,0,1-.15.54,4.1,4.1,0,0,1-.3.55,1.81,1.81,0,0,1-.41.42,3,3,0,0,1-.52.29,1,1,0,0,1-.55.19,4.09,4.09,0,0,1-.6.07,3.54,3.54,0,0,1-.6-.12l-.52-.24a1.56,1.56,0,0,1-.46-.42,4.23,4.23,0,0,1-.37-.45.47.47,0,0,1-.12-.27,1.49,1.49,0,0,0-.11-.28,4.79,4.79,0,0,0-.88-1.91,6.48,6.48,0,0,0-2.81-1.27,7.53,7.53,0,0,0-3-.35,4.68,4.68,0,0,0-1.87.59,3.91,3.91,0,0,0-1.15,1.14,3.13,3.13,0,0,0-.52,1.32,4.73,4.73,0,0,0,.25.85,7.21,7.21,0,0,0,1,1.66c.53.67,1.16,1.4,1.88,2.19s1.53,1.55,2.31,2.35,1.62,1.65,2.42,2.49a19.56,19.56,0,0,1,2.14,2.65,12.32,12.32,0,0,1,1.51,3,5.35,5.35,0,0,1,.08,3.34v.09l0,.05a10.22,10.22,0,0,1-1.1,2.71,10,10,0,0,1-1.8,2.23,10.27,10.27,0,0,1-4.47,2.54,9.73,9.73,0,0,1-5.27,0,16.1,16.1,0,0,1-4.35-2.2,9.64,9.64,0,0,1-3.71-5.39,2.34,2.34,0,0,1-.12-.62,2,2,0,0,1,0-.59c.06-.18.11-.38.17-.59a3.6,3.6,0,0,1,.29-.5,2.88,2.88,0,0,1,.45-.41,3.25,3.25,0,0,1,.49-.35,1.68,1.68,0,0,1,.58-.13,2,2,0,0,1,.59,0,1.29,1.29,0,0,1,.6.12,1.87,1.87,0,0,1,.52.24,3.19,3.19,0,0,1,.43.37c.15.17.28.34.4.5a1.49,1.49,0,0,1,.11.28c0,.11.06.19.08.26a5.62,5.62,0,0,0,2.11,3.23,11.17,11.17,0,0,0,2.69,1.2,5.29,5.29,0,0,0,4.15-.54,4.78,4.78,0,0,0,2.52-3.05,1.79,1.79,0,0,0,0-.39l.06-.23a1.57,1.57,0,0,0-.11-.81,4.43,4.43,0,0,0-.82-1.59,17.4,17.4,0,0,0-1.7-2.09l-2.27-2.35-2.39-2.43a30.48,30.48,0,0,1-2.21-2.57,18.58,18.58,0,0,1-1.75-2.78,5.55,5.55,0,0,1-.48-3.31,6,6,0,0,1,.2-1.07,8.4,8.4,0,0,1,1-2.25,7.63,7.63,0,0,1,2.67-2.56,9.11,9.11,0,0,1,3.88-1.3,12.62,12.62,0,0,1,4.8.47,9.94,9.94,0,0,1,4.75,2.7A8.2,8.2,0,0,1,198.89,415.86Z"/><path class="cls-3" d="M213.87,417q-1.16,7.27-4.65,29.22a1.75,1.75,0,0,1-2.28,1.44l-.41-.06q-2.29-.56-2.07-1.95,1.54-9.69,4.67-29c.24-1.49,1.14-2.12,2.73-1.9h0C213.42,415,214.07,415.77,213.87,417Z"/><path class="cls-3" d="M233,416.2a11.18,11.18,0,0,1,5.85,1.88,7.81,7.81,0,0,1,3.51,4.84,1.32,1.32,0,0,1-.13,1.08,2.42,2.42,0,0,1-1.22.94,3.75,3.75,0,0,1-1.84.34,1.93,1.93,0,0,1-1.25-.61.7.7,0,0,1-.13-.24.89.89,0,0,1,0-.33,3.74,3.74,0,0,0-1.66-2,5.26,5.26,0,0,0-2.82-1.1,19.58,19.58,0,0,0-2.21.05,6.61,6.61,0,0,0-2.71.83,2.92,2.92,0,0,0-1.12.89,2.28,2.28,0,0,0-.38,1.3q-.26,6.06-.74,18.26a3.34,3.34,0,0,0,.44,1.71,3.7,3.7,0,0,0,1.05,1,5.59,5.59,0,0,0,1.8.68,9.19,9.19,0,0,0,2.1.32,9.63,9.63,0,0,0,2.69-.22,5.49,5.49,0,0,0,1.67-.59,2.59,2.59,0,0,0,.83-.72,1.66,1.66,0,0,0,.22-.83c0-1.13.11-2.83.21-5.12a1.72,1.72,0,0,0-.78-1.77,3.08,3.08,0,0,0-1.57-.63q-.84,0-2.58-.15a1.29,1.29,0,0,1-1.15-.61,2.9,2.9,0,0,1-.39-1.85,3.2,3.2,0,0,1,.54-1.71,1.16,1.16,0,0,1,1-.57l7.18.29.61,0a1.81,1.81,0,0,1,.55.12,1.63,1.63,0,0,1,.51.3,1.33,1.33,0,0,1,.45.4,1,1,0,0,1,.31.48,3.28,3.28,0,0,1,.21.57.55.55,0,0,1,.09.29l0,.32c-.08,2.16-.22,5.43-.39,9.81a6.14,6.14,0,0,1-1,3.11,7,7,0,0,1-2.35,2.35,10.36,10.36,0,0,1-3.2,1.23,16,16,0,0,1-3.86.27,18.78,18.78,0,0,1-3.09-.41,9.56,9.56,0,0,1-3.14-1.3,8.8,8.8,0,0,1-2.62-2.64,6.65,6.65,0,0,1-1.12-3.67c0-.22,0-.34,0-.38v-.23q.24-6.11.74-18.3a6.82,6.82,0,0,1,1.28-3.8,8.18,8.18,0,0,1,2.78-2.43,10.66,10.66,0,0,1,3.29-1.18,22.45,22.45,0,0,1,3.44-.24H233Z"/><path class="cls-3" d="M272.91,415.55q.85,7.41,3.42,29.72a4.54,4.54,0,0,1,.12.6,5.54,5.54,0,0,1-.07.57,4.36,4.36,0,0,1-.17.59l-.32.51a2.57,2.57,0,0,1-.47.39,2.3,2.3,0,0,0-.48.3,1,1,0,0,1-.32.08l-.28,0-3.13.37a3.23,3.23,0,0,1-.61,0,2.07,2.07,0,0,1-.58-.12,1.76,1.76,0,0,1-.51-.27A2.07,2.07,0,0,1,269,448a.43.43,0,0,1-.21-.21c-.05-.09-.09-.17-.13-.26q-3.24-6-9.64-17.9c-.4-.68-.9-.85-1.49-.53a1.12,1.12,0,0,0-.58,1.44q.74,6,2.18,18a1.92,1.92,0,0,1-.6,1.26,2.56,2.56,0,0,1-1.63.62,3.05,3.05,0,0,1-1.78-.21,1.18,1.18,0,0,1-.71-.86q-1.23-10.06-3.61-30.12a5.31,5.31,0,0,1-.12-.6,1.82,1.82,0,0,1,0-.57,2.08,2.08,0,0,1,.22-.6,2.9,2.9,0,0,1,.31-.51,3.14,3.14,0,0,1,.48-.39l.48-.29a.7.7,0,0,1,.27-.08l.33,0,2.38-.29a5.79,5.79,0,0,1,.61,0,2.07,2.07,0,0,1,.58.12,1.34,1.34,0,0,1,.51.27,2.84,2.84,0,0,1,.47.37,1,1,0,0,1,.21.21c.05.09.09.18.13.27q3.48,6.48,10.5,19.44c.46.74,1,.93,1.53.58a1.5,1.5,0,0,0,.67-1.55q-.74-6.34-2.17-19-.53-2,2-2.37C271.87,413.86,272.77,414.33,272.91,415.55Z"/><path class="cls-3" d="M321.4,401.22a2.73,2.73,0,0,1,.47.35,1.62,1.62,0,0,1,.42.48,1.7,1.7,0,0,1,.24.51,3.75,3.75,0,0,1,.12.62,1.69,1.69,0,0,1,0,.59,2.6,2.6,0,0,1-.21.55,1.05,1.05,0,0,1-.29.5,3.51,3.51,0,0,1-.42.44,3.45,3.45,0,0,1-.54.3l-.55.14a1.66,1.66,0,0,1-.63,0c-.18,0-.37-.06-.56-.11a.5.5,0,0,1-.27-.14,1.32,1.32,0,0,0-.27-.13,4.7,4.7,0,0,0-1.89-.9,6.41,6.41,0,0,0-3,.82,7.77,7.77,0,0,0-2.51,1.65,4.79,4.79,0,0,0-1.05,1.66,4.07,4.07,0,0,0-.15,1.61,3.09,3.09,0,0,0,.45,1.34,4.79,4.79,0,0,0,.74.49,6.73,6.73,0,0,0,1.86.6c.84.18,1.78.34,2.84.48s2.17.2,3.29.32,2.3.22,3.45.35a20,20,0,0,1,3.34.66,12.35,12.35,0,0,1,3.06,1.3,5.34,5.34,0,0,1,2.21,2.51l0,0,0,0,0,.05a10.09,10.09,0,0,1,.95,5.65,10.36,10.36,0,0,1-1.8,4.82,9.73,9.73,0,0,1-4,3.37,15.82,15.82,0,0,1-4.76,1.11,9.63,9.63,0,0,1-6.3-1.75,2.13,2.13,0,0,1-.48-.4,1.85,1.85,0,0,1-.41-.43c-.07-.17-.16-.36-.25-.56a3.39,3.39,0,0,1-.1-.57,3.1,3.1,0,0,1,.09-.61,2.37,2.37,0,0,1,.15-.58,1.8,1.8,0,0,1,.35-.47,2,2,0,0,1,.44-.4,1.34,1.34,0,0,1,.54-.29,1.66,1.66,0,0,1,.55-.15,2.71,2.71,0,0,1,.57,0c.22,0,.43.08.62.13a1.76,1.76,0,0,1,.27.14,1.14,1.14,0,0,1,.22.16,5.67,5.67,0,0,0,3.7,1.11,10.45,10.45,0,0,0,2.83-.81,5.27,5.27,0,0,0,2.84-3.08,4.76,4.76,0,0,0,0-3.95,1.64,1.64,0,0,0-.24-.3l-.1-.22a1.78,1.78,0,0,0-.61-.55,4.48,4.48,0,0,0-1.65-.7,17.45,17.45,0,0,0-2.65-.5l-3.24-.35-3.4-.32a31.43,31.43,0,0,1-3.34-.56,17.57,17.57,0,0,1-3.13-1,5.55,5.55,0,0,1-2.49-2.22,5.66,5.66,0,0,1-.53-.95,7.85,7.85,0,0,1-.66-2.38,7.42,7.42,0,0,1,.4-3.68,9,9,0,0,1,2.14-3.49,12.63,12.63,0,0,1,4-2.72,9.93,9.93,0,0,1,5.38-1A8.16,8.16,0,0,1,321.4,401.22Z"/><path class="cls-3" d="M344.34,382.45c1.15-.76,2.13-.53,2.94.7l.06.08c.82,1.26.91,2.15.25,2.7a1,1,0,0,0-.24.22,1.2,1.2,0,0,1-.21.19l-3.61,2.38c-.94.62-1.32,1.21-1.15,1.76a5.45,5.45,0,0,0,.7,1.57l13.56,20.59c1,1.46.87,2.63-.49,3.53a2.2,2.2,0,0,1-3.4-.74L339.31,395c-.78-1.13-1.53-1.65-2.26-1.55a4.46,4.46,0,0,0-1.63.51l-3.25,2.15q-1.79,1.22-3.16-.79l0,0q-1.26-1.92.24-3l.08-.05c.28-.14,1.63-1,4.06-2.62S339.44,385.64,344.34,382.45Z"/><path class="cls-3" d="M357.07,375.17l15.33,16.59a5.34,5.34,0,0,0,2,1.51,3.58,3.58,0,0,0,1.75.17,5.31,5.31,0,0,0,1.86-.69,9.05,9.05,0,0,0,1.84-1.32,7.82,7.82,0,0,0,1.44-1.78,5.83,5.83,0,0,0,.7-1.93,3.4,3.4,0,0,0,0-1.53,4,4,0,0,0-.68-1.35,2.9,2.9,0,0,1-.29-.25l-.16-.17-15.42-16.7q-1.35-1.38.21-2.88a1,1,0,0,1,.21-.12c1.23-1.06,2.22-1.19,3-.38l15.49,16.76,0,0,0,0,.22.24a7.46,7.46,0,0,1,1.9,3.3,8.36,8.36,0,0,1,.21,3.83,10.27,10.27,0,0,1-1.23,3.51,13.53,13.53,0,0,1-2.38,2.89A16,16,0,0,1,380.3,397a9.54,9.54,0,0,1-3.57,1.19,8.53,8.53,0,0,1-4-.49,9.66,9.66,0,0,1-3.85-2.64q-5-5.49-15-16.35-1.41-1.45.29-3.15T357.07,375.17Z"/><path class="cls-3" d="M374.22,354.81l6.89-8.86a1.18,1.18,0,0,1,.27-.26l.15-.19a9.5,9.5,0,0,1,2.56-1.45,6.92,6.92,0,0,1,2.71-.51,8.28,8.28,0,0,1,2.5.39,14.42,14.42,0,0,1,2.11.88,2.74,2.74,0,0,1,.33.19l.18.15q5,3.87,14.9,11.67a2.74,2.74,0,0,1,.33.19l0,0,.14.11a8.78,8.78,0,0,1,2,2.94,6.67,6.67,0,0,1,.55,3.11,7.26,7.26,0,0,1-.8,2.7,12,12,0,0,1-1.31,2.14q-2,2.54-6,7.68a4.35,4.35,0,0,1-.8.87,1.63,1.63,0,0,1-.54.23,1.3,1.3,0,0,1-.58.14,1.85,1.85,0,0,1-.57,0,3.65,3.65,0,0,1-.59-.16l-.28-.1-.22-.17q-8-6.27-23.91-18.69a3.85,3.85,0,0,1-.3-.53,3.23,3.23,0,0,1-.2-.57,1.39,1.39,0,0,1,0-.61,4.71,4.71,0,0,1,.1-.58,2.85,2.85,0,0,1,.18-.39c.07-.14.1-.2.08-.17l0,0,0,0Zm26.54,14.37,3.21-4.11a7.44,7.44,0,0,0,.78-1.24,3.37,3.37,0,0,0,.34-1,2.48,2.48,0,0,0-.15-.89,3.71,3.71,0,0,0-.92-1.26q-4.93-3.83-14.78-11.51a8.5,8.5,0,0,0-1.34-.57,5.48,5.48,0,0,0-1.14-.23,3.7,3.7,0,0,0-2,.79L381,353.94q-1.19,1.51-.63,2.25a4.91,4.91,0,0,0,.94,1.09l2.3,1.79L397,369.54c1.16.91,2,1.15,2.53.73A6.4,6.4,0,0,0,400.76,369.18Z"/><path class="cls-3" d="M394.62,330.11,420,345.37a1.74,1.74,0,0,1,.49,2.65l-.22.36c-.91,1.28-1.77,1.67-2.58,1.19q-8.4-5.06-25.16-15.2-1.94-1.15-.74-3.24l0,0C392.57,329.78,393.52,329.45,394.62,330.11Z"/><path class="cls-3" d="M405.62,307.33a8.77,8.77,0,0,1,2.8-.95,4.67,4.67,0,0,1,2.76.38L429.23,315a6.57,6.57,0,0,1,2.54,2,7.87,7.87,0,0,1,1.43,3,9.39,9.39,0,0,1,.11,3.4,12.72,12.72,0,0,1-1.08,3.63,16.14,16.14,0,0,1-1.64,2.82,10.42,10.42,0,0,1-2.43,2.3,7.36,7.36,0,0,1-3.3,1.24,6.56,6.56,0,0,1-3.72-.56l-18.05-8.18a5.7,5.7,0,0,1-2.38-2,7.63,7.63,0,0,1-1.17-3,11,11,0,0,1,0-3.28,15.32,15.32,0,0,1,1.12-3.51,12.29,12.29,0,0,1,2.21-3.38A9.61,9.61,0,0,1,405.62,307.33Zm-1.36,11.51a2.23,2.23,0,0,0,.34,1,1.08,1.08,0,0,0,.47.42l18.05,8.19a2.27,2.27,0,0,0,1.23.25,3.41,3.41,0,0,0,1.11-.53,5.24,5.24,0,0,0,1.32-1.31,9.54,9.54,0,0,0,1.09-1.82,7.56,7.56,0,0,0,.69-2.32,4.3,4.3,0,0,0,0-1.66,2.54,2.54,0,0,0-.49-1.1,2.36,2.36,0,0,0-.82-.58l-18-8.18c.17.08.11.1-.19.07a2.45,2.45,0,0,0-1.17.29,5.46,5.46,0,0,0-1.4,1.17,7,7,0,0,0-1.35,2.07,9.23,9.23,0,0,0-.75,2.34A5.53,5.53,0,0,0,404.26,318.84Z"/><circle class="cls-1" cx="51.3" cy="240.28" r="21.06"/><circle class="cls-1" cx="426.59" cy="239.97" r="21.06"/></svg>